<svg xmlns="http://www.w3.org/2000/svg" xmlns:xlink="http://www.w3.org/1999/xlink" width="640" zoomAndPan="magnify" viewBox="0 0 480 345.749992" height="461" preserveAspectRatio="xMidYMid meet" version="1.0"><defs><filter x="0%" y="0%" width="100%" height="100%" id="7e2c73e51b"><feColorMatrix values="0 0 0 0 1 0 0 0 0 1 0 0 0 0 1 0 0 0 1 0" color-interpolation-filters="sRGB"/></filter><g/><mask id="0f13cf1abf"><g filter="url(#7e2c73e51b)"><rect x="-48" width="576" fill="#000000" y="-34.574999" height="414.89999" fill-opacity="0.6"/></g></mask><clipPath id="e0faafbb28"><path d="M 1 0.226562 L 375.417969 0.226562 L 375.417969 1.183594 L 1 1.183594 Z M 1 0.226562 " clip-rule="nonzero"/></clipPath><clipPath id="fb3218a9d3"><rect x="0" width="376" y="0" height="2"/></clipPath><mask id="a75cbeb93a"><g filter="url(#7e2c73e51b)"><rect x="-48" width="576" fill="#000000" y="-34.574999" height="414.89999" fill-opacity="0.25"/></g></mask><clipPath id="64a86927ca"><path d="M 1 0.570312 L 375.417969 0.570312 L 375.417969 1.53125 L 1 1.53125 Z M 1 0.570312 " clip-rule="nonzero"/></clipPath><clipPath id="e26bb0027d"><rect x="0" width="376" y="0" height="2"/></clipPath><mask id="3de4329675"><g filter="url(#7e2c73e51b)"><rect x="-48" width="576" fill="#000000" y="-34.574999" height="414.89999" fill-opacity="0.25"/></g></mask><clipPath id="c28ae238f4"><path d="M 1 1 L 375.417969 1 L 375.417969 1.878906 L 1 1.878906 Z M 1 1 " clip-rule="nonzero"/></clipPath><clipPath id="8d6cdbd61d"><rect x="0" width="376" y="0" height="2"/></clipPath><mask id="ca8b22f5d7"><g filter="url(#7e2c73e51b)"><rect x="-48" width="576" fill="#000000" y="-34.574999" height="414.89999" fill-opacity="0.25"/></g></mask><clipPath id="795fae3001"><path d="M 1 1 L 375.417969 1 L 375.417969 1.746094 L 1 1.746094 Z M 1 1 " clip-rule="nonzero"/></clipPath><clipPath id="1a21613691"><rect x="0" width="376" y="0" height="2"/></clipPath><mask id="4fd386bb44"><g filter="url(#7e2c73e51b)"><rect x="-48" width="576" fill="#000000" y="-34.574999" height="414.89999" fill-opacity="0.25"/></g></mask><clipPath id="c3870014af"><path d="M 1 1 L 375.417969 1 L 375.417969 2 L 1 2 Z M 1 1 " clip-rule="nonzero"/></clipPath><clipPath id="97e02c783b"><rect x="0" width="376" y="0" height="3"/></clipPath><clipPath id="deb315d546"><path d="M 62.21875 129.339844 L 99.296875 129.339844 L 99.296875 242.917969 L 62.21875 242.917969 Z M 62.21875 129.339844 " clip-rule="nonzero"/></clipPath><clipPath id="7fbd8e02eb"><path d="M 101.246094 167.199219 L 138.324219 167.199219 L 138.324219 242.917969 L 101.246094 242.917969 Z M 101.246094 167.199219 " clip-rule="nonzero"/></clipPath><clipPath id="1a03d9de37"><path d="M 140.277344 182.34375 L 177.351562 182.34375 L 177.351562 242.917969 L 140.277344 242.917969 Z M 140.277344 182.34375 " clip-rule="nonzero"/></clipPath><clipPath id="6c353375eb"><path d="M 191.582031 106.625 L 228.660156 106.625 L 228.660156 242.917969 L 191.582031 242.917969 Z M 191.582031 106.625 " clip-rule="nonzero"/></clipPath><clipPath id="55acb963ca"><path d="M 230.613281 121.769531 L 267.6875 121.769531 L 267.6875 242.917969 L 230.613281 242.917969 Z M 230.613281 121.769531 " clip-rule="nonzero"/></clipPath><clipPath id="57403fb02e"><path d="M 269.640625 152.058594 L 306.71875 152.058594 L 306.71875 242.917969 L 269.640625 242.917969 Z M 269.640625 152.058594 " clip-rule="nonzero"/></clipPath><clipPath id="19bf9d3b87"><path d="M 320.949219 99.054688 L 358.027344 99.054688 L 358.027344 242.917969 L 320.949219 242.917969 Z M 320.949219 99.054688 " clip-rule="nonzero"/></clipPath><clipPath id="7901f2c32d"><path d="M 359.976562 129.339844 L 397.054688 129.339844 L 397.054688 242.917969 L 359.976562 242.917969 Z M 359.976562 129.339844 " clip-rule="nonzero"/></clipPath><clipPath id="cd94bd6f07"><path d="M 399.007812 152.058594 L 436.082031 152.058594 L 436.082031 242.917969 L 399.007812 242.917969 Z M 399.007812 152.058594 " clip-rule="nonzero"/></clipPath><clipPath id="230caca567"><path d="M 44.066406 281.878906 L 63.605469 281.878906 L 63.605469 310.957031 L 44.066406 310.957031 Z M 44.066406 281.878906 " clip-rule="nonzero"/></clipPath><clipPath id="f81dc067f1"><path d="M 53.835938 281.878906 C 59.234375 281.878906 63.605469 286.25 63.605469 291.648438 L 63.605469 301.179688 C 63.605469 306.574219 59.234375 310.949219 53.835938 310.949219 C 48.441406 310.949219 44.066406 306.574219 44.066406 301.179688 L 44.066406 291.648438 C 44.066406 286.25 48.441406 281.878906 53.835938 281.878906 Z M 53.835938 281.878906 " clip-rule="nonzero"/></clipPath><clipPath id="97fb3386ad"><path d="M 182.753906 281.878906 L 202.292969 281.878906 L 202.292969 310.957031 L 182.753906 310.957031 Z M 182.753906 281.878906 " clip-rule="nonzero"/></clipPath><clipPath id="00ef0fdbf8"><path d="M 192.523438 281.878906 C 197.921875 281.878906 202.292969 286.25 202.292969 291.648438 L 202.292969 301.179688 C 202.292969 306.574219 197.921875 310.949219 192.523438 310.949219 C 187.128906 310.949219 182.753906 306.574219 182.753906 301.179688 L 182.753906 291.648438 C 182.753906 286.25 187.128906 281.878906 192.523438 281.878906 Z M 192.523438 281.878906 " clip-rule="nonzero"/></clipPath><clipPath id="3b3ba85616"><path d="M 321.441406 281.878906 L 340.980469 281.878906 L 340.980469 310.957031 L 321.441406 310.957031 Z M 321.441406 281.878906 " clip-rule="nonzero"/></clipPath><clipPath id="634f9892ec"><path d="M 331.210938 281.878906 C 336.609375 281.878906 340.980469 286.25 340.980469 291.648438 L 340.980469 301.179688 C 340.980469 306.574219 336.609375 310.949219 331.210938 310.949219 C 325.816406 310.949219 321.441406 306.574219 321.441406 301.179688 L 321.441406 291.648438 C 321.441406 286.25 325.816406 281.878906 331.210938 281.878906 Z M 331.210938 281.878906 " clip-rule="nonzero"/></clipPath></defs><g fill="#000000" fill-opacity="1"><g transform="translate(49.414974, 246.030623)"><g><path d="M 3.15625 0.109375 C 2.582031 0.109375 2.085938 -0.0234375 1.671875 -0.296875 C 1.265625 -0.566406 0.953125 -0.941406 0.734375 -1.421875 C 0.515625 -1.898438 0.40625 -2.460938 0.40625 -3.109375 C 0.40625 -3.742188 0.515625 -4.300781 0.734375 -4.78125 C 0.953125 -5.269531 1.265625 -5.644531 1.671875 -5.90625 C 2.085938 -6.175781 2.582031 -6.3125 3.15625 -6.3125 C 3.726562 -6.3125 4.21875 -6.175781 4.625 -5.90625 C 5.03125 -5.644531 5.34375 -5.269531 5.5625 -4.78125 C 5.789062 -4.300781 5.90625 -3.742188 5.90625 -3.109375 C 5.90625 -2.460938 5.789062 -1.898438 5.5625 -1.421875 C 5.34375 -0.941406 5.03125 -0.566406 4.625 -0.296875 C 4.21875 -0.0234375 3.726562 0.109375 3.15625 0.109375 Z M 3.15625 -0.921875 C 3.625 -0.921875 4.003906 -1.113281 4.296875 -1.5 C 4.585938 -1.882812 4.734375 -2.421875 4.734375 -3.109375 C 4.734375 -3.785156 4.585938 -4.316406 4.296875 -4.703125 C 4.003906 -5.097656 3.625 -5.296875 3.15625 -5.296875 C 2.675781 -5.296875 2.289062 -5.097656 2 -4.703125 C 1.707031 -4.316406 1.5625 -3.785156 1.5625 -3.109375 C 1.5625 -2.421875 1.707031 -1.882812 2 -1.5 C 2.289062 -1.113281 2.675781 -0.921875 3.15625 -0.921875 Z M 3.15625 -0.921875 "/></g></g></g><g fill="#000000" fill-opacity="1"><g transform="translate(50.593906, 208.171296)"><g><path d="M 2.828125 0.109375 C 2.367188 0.109375 1.972656 0.03125 1.640625 -0.125 C 1.316406 -0.289062 1.0625 -0.515625 0.875 -0.796875 C 0.695312 -1.078125 0.59375 -1.394531 0.5625 -1.75 L 1.671875 -1.75 C 1.722656 -1.488281 1.851562 -1.273438 2.0625 -1.109375 C 2.269531 -0.941406 2.523438 -0.859375 2.828125 -0.859375 C 3.160156 -0.859375 3.429688 -0.976562 3.640625 -1.21875 C 3.847656 -1.46875 3.953125 -1.769531 3.953125 -2.125 C 3.953125 -2.5 3.847656 -2.796875 3.640625 -3.015625 C 3.429688 -3.234375 3.164062 -3.34375 2.84375 -3.34375 C 2.582031 -3.34375 2.351562 -3.273438 2.15625 -3.140625 C 1.957031 -3.015625 1.816406 -2.851562 1.734375 -2.65625 L 0.640625 -2.65625 L 1.1875 -6.21875 L 4.625 -6.21875 L 4.625 -5.21875 L 2.03125 -5.21875 L 1.75 -3.78125 C 1.875 -3.925781 2.050781 -4.039062 2.28125 -4.125 C 2.507812 -4.21875 2.757812 -4.265625 3.03125 -4.265625 C 3.476562 -4.265625 3.847656 -4.164062 4.140625 -3.96875 C 4.441406 -3.769531 4.664062 -3.507812 4.8125 -3.1875 C 4.96875 -2.863281 5.046875 -2.515625 5.046875 -2.140625 C 5.046875 -1.703125 4.953125 -1.316406 4.765625 -0.984375 C 4.578125 -0.648438 4.316406 -0.382812 3.984375 -0.1875 C 3.648438 0.0078125 3.265625 0.109375 2.828125 0.109375 Z M 2.828125 0.109375 "/></g></g></g><g fill="#000000" fill-opacity="1"><g transform="translate(46.327868, 170.311968)"><g><path d="M 1.28125 0 L 1.28125 -4.921875 L 0.25 -4.671875 L 0.25 -5.546875 L 1.75 -6.21875 L 2.453125 -6.21875 L 2.453125 0 Z M 1.28125 0 "/></g></g></g><g fill="#000000" fill-opacity="1"><g transform="translate(49.386744, 170.311968)"><g><path d="M 3.15625 0.109375 C 2.582031 0.109375 2.085938 -0.0234375 1.671875 -0.296875 C 1.265625 -0.566406 0.953125 -0.941406 0.734375 -1.421875 C 0.515625 -1.898438 0.40625 -2.460938 0.40625 -3.109375 C 0.40625 -3.742188 0.515625 -4.300781 0.734375 -4.78125 C 0.953125 -5.269531 1.265625 -5.644531 1.671875 -5.90625 C 2.085938 -6.175781 2.582031 -6.3125 3.15625 -6.3125 C 3.726562 -6.3125 4.21875 -6.175781 4.625 -5.90625 C 5.03125 -5.644531 5.34375 -5.269531 5.5625 -4.78125 C 5.789062 -4.300781 5.90625 -3.742188 5.90625 -3.109375 C 5.90625 -2.460938 5.789062 -1.898438 5.5625 -1.421875 C 5.34375 -0.941406 5.03125 -0.566406 4.625 -0.296875 C 4.21875 -0.0234375 3.726562 0.109375 3.15625 0.109375 Z M 3.15625 -0.921875 C 3.625 -0.921875 4.003906 -1.113281 4.296875 -1.5 C 4.585938 -1.882812 4.734375 -2.421875 4.734375 -3.109375 C 4.734375 -3.785156 4.585938 -4.316406 4.296875 -4.703125 C 4.003906 -5.097656 3.625 -5.296875 3.15625 -5.296875 C 2.675781 -5.296875 2.289062 -5.097656 2 -4.703125 C 1.707031 -4.316406 1.5625 -3.785156 1.5625 -3.109375 C 1.5625 -2.421875 1.707031 -1.882812 2 -1.5 C 2.289062 -1.113281 2.675781 -0.921875 3.15625 -0.921875 Z M 3.15625 -0.921875 "/></g></g></g><g fill="#000000" fill-opacity="1"><g transform="translate(47.5068, 132.452672)"><g><path d="M 1.28125 0 L 1.28125 -4.921875 L 0.25 -4.671875 L 0.25 -5.546875 L 1.75 -6.21875 L 2.453125 -6.21875 L 2.453125 0 Z M 1.28125 0 "/></g></g></g><g fill="#000000" fill-opacity="1"><g transform="translate(50.565675, 132.452672)"><g><path d="M 2.828125 0.109375 C 2.367188 0.109375 1.972656 0.03125 1.640625 -0.125 C 1.316406 -0.289062 1.0625 -0.515625 0.875 -0.796875 C 0.695312 -1.078125 0.59375 -1.394531 0.5625 -1.75 L 1.671875 -1.75 C 1.722656 -1.488281 1.851562 -1.273438 2.0625 -1.109375 C 2.269531 -0.941406 2.523438 -0.859375 2.828125 -0.859375 C 3.160156 -0.859375 3.429688 -0.976562 3.640625 -1.21875 C 3.847656 -1.46875 3.953125 -1.769531 3.953125 -2.125 C 3.953125 -2.5 3.847656 -2.796875 3.640625 -3.015625 C 3.429688 -3.234375 3.164062 -3.34375 2.84375 -3.34375 C 2.582031 -3.34375 2.351562 -3.273438 2.15625 -3.140625 C 1.957031 -3.015625 1.816406 -2.851562 1.734375 -2.65625 L 0.640625 -2.65625 L 1.1875 -6.21875 L 4.625 -6.21875 L 4.625 -5.21875 L 2.03125 -5.21875 L 1.75 -3.78125 C 1.875 -3.925781 2.050781 -4.039062 2.28125 -4.125 C 2.507812 -4.21875 2.757812 -4.265625 3.03125 -4.265625 C 3.476562 -4.265625 3.847656 -4.164062 4.140625 -3.96875 C 4.441406 -3.769531 4.664062 -3.507812 4.8125 -3.1875 C 4.96875 -2.863281 5.046875 -2.515625 5.046875 -2.140625 C 5.046875 -1.703125 4.953125 -1.316406 4.765625 -0.984375 C 4.578125 -0.648438 4.316406 -0.382812 3.984375 -0.1875 C 3.648438 0.0078125 3.265625 0.109375 2.828125 0.109375 Z M 2.828125 0.109375 "/></g></g></g><g fill="#000000" fill-opacity="1"><g transform="translate(44.182694, 94.593345)"><g><path d="M 0.453125 0 L 0.453125 -0.828125 C 0.828125 -1.140625 1.191406 -1.445312 1.546875 -1.75 C 1.910156 -2.0625 2.234375 -2.367188 2.515625 -2.671875 C 2.796875 -2.972656 3.019531 -3.265625 3.1875 -3.546875 C 3.351562 -3.835938 3.4375 -4.117188 3.4375 -4.390625 C 3.4375 -4.648438 3.367188 -4.875 3.234375 -5.0625 C 3.097656 -5.257812 2.867188 -5.359375 2.546875 -5.359375 C 2.222656 -5.359375 1.976562 -5.25 1.8125 -5.03125 C 1.644531 -4.820312 1.5625 -4.566406 1.5625 -4.265625 L 0.46875 -4.265625 C 0.476562 -4.722656 0.578125 -5.101562 0.765625 -5.40625 C 0.953125 -5.707031 1.203125 -5.929688 1.515625 -6.078125 C 1.828125 -6.234375 2.179688 -6.3125 2.578125 -6.3125 C 3.203125 -6.3125 3.691406 -6.140625 4.046875 -5.796875 C 4.398438 -5.453125 4.578125 -5.003906 4.578125 -4.453125 C 4.578125 -4.109375 4.5 -3.773438 4.34375 -3.453125 C 4.1875 -3.128906 3.976562 -2.816406 3.71875 -2.515625 C 3.46875 -2.210938 3.191406 -1.925781 2.890625 -1.65625 C 2.597656 -1.394531 2.316406 -1.15625 2.046875 -0.9375 L 4.734375 -0.9375 L 4.734375 0 Z M 0.453125 0 "/></g></g></g><g fill="#000000" fill-opacity="1"><g transform="translate(49.201022, 94.593345)"><g><path d="M 3.15625 0.109375 C 2.582031 0.109375 2.085938 -0.0234375 1.671875 -0.296875 C 1.265625 -0.566406 0.953125 -0.941406 0.734375 -1.421875 C 0.515625 -1.898438 0.40625 -2.460938 0.40625 -3.109375 C 0.40625 -3.742188 0.515625 -4.300781 0.734375 -4.78125 C 0.953125 -5.269531 1.265625 -5.644531 1.671875 -5.90625 C 2.085938 -6.175781 2.582031 -6.3125 3.15625 -6.3125 C 3.726562 -6.3125 4.21875 -6.175781 4.625 -5.90625 C 5.03125 -5.644531 5.34375 -5.269531 5.5625 -4.78125 C 5.789062 -4.300781 5.90625 -3.742188 5.90625 -3.109375 C 5.90625 -2.460938 5.789062 -1.898438 5.5625 -1.421875 C 5.34375 -0.941406 5.03125 -0.566406 4.625 -0.296875 C 4.21875 -0.0234375 3.726562 0.109375 3.15625 0.109375 Z M 3.15625 -0.921875 C 3.625 -0.921875 4.003906 -1.113281 4.296875 -1.5 C 4.585938 -1.882812 4.734375 -2.421875 4.734375 -3.109375 C 4.734375 -3.785156 4.585938 -4.316406 4.296875 -4.703125 C 4.003906 -5.097656 3.625 -5.296875 3.15625 -5.296875 C 2.675781 -5.296875 2.289062 -5.097656 2 -4.703125 C 1.707031 -4.316406 1.5625 -3.785156 1.5625 -3.109375 C 1.5625 -2.421875 1.707031 -1.882812 2 -1.5 C 2.289062 -1.113281 2.675781 -0.921875 3.15625 -0.921875 Z M 3.15625 -0.921875 "/></g></g></g><g fill="#000000" fill-opacity="1"><g transform="translate(104.131366, 254.353646)"><g><path d="M 2.234375 0.109375 C 1.628906 0.109375 1.144531 -0.0625 0.78125 -0.40625 C 0.414062 -0.75 0.234375 -1.234375 0.234375 -1.859375 L 1.359375 -1.859375 C 1.367188 -1.566406 1.4375 -1.332031 1.5625 -1.15625 C 1.695312 -0.988281 1.910156 -0.90625 2.203125 -0.90625 C 2.472656 -0.90625 2.671875 -0.984375 2.796875 -1.140625 C 2.921875 -1.304688 2.984375 -1.523438 2.984375 -1.796875 L 2.984375 -6.21875 L 4.125 -6.21875 L 4.125 -1.796875 C 4.125 -1.179688 3.953125 -0.707031 3.609375 -0.375 C 3.265625 -0.0507812 2.804688 0.109375 2.234375 0.109375 Z M 2.234375 0.109375 "/></g></g></g><g fill="#000000" fill-opacity="1"><g transform="translate(108.848242, 254.353646)"><g><path d="M 2.09375 0.109375 C 1.71875 0.109375 1.40625 0.0507812 1.15625 -0.0625 C 0.914062 -0.1875 0.734375 -0.347656 0.609375 -0.546875 C 0.492188 -0.753906 0.4375 -0.976562 0.4375 -1.21875 C 0.4375 -1.632812 0.597656 -1.96875 0.921875 -2.21875 C 1.242188 -2.46875 1.722656 -2.59375 2.359375 -2.59375 L 3.484375 -2.59375 L 3.484375 -2.703125 C 3.484375 -3.003906 3.394531 -3.222656 3.21875 -3.359375 C 3.050781 -3.503906 2.835938 -3.578125 2.578125 -3.578125 C 2.347656 -3.578125 2.144531 -3.519531 1.96875 -3.40625 C 1.800781 -3.300781 1.695312 -3.144531 1.65625 -2.9375 L 0.546875 -2.9375 C 0.578125 -3.257812 0.6875 -3.535156 0.875 -3.765625 C 1.0625 -4.003906 1.300781 -4.1875 1.59375 -4.3125 C 1.894531 -4.445312 2.226562 -4.515625 2.59375 -4.515625 C 3.21875 -4.515625 3.707031 -4.351562 4.0625 -4.03125 C 4.425781 -3.71875 4.609375 -3.273438 4.609375 -2.703125 L 4.609375 0 L 3.640625 0 L 3.546875 -0.703125 C 3.410156 -0.472656 3.222656 -0.28125 2.984375 -0.125 C 2.753906 0.03125 2.457031 0.109375 2.09375 0.109375 Z M 2.359375 -0.78125 C 2.679688 -0.78125 2.929688 -0.882812 3.109375 -1.09375 C 3.285156 -1.3125 3.398438 -1.578125 3.453125 -1.890625 L 2.484375 -1.890625 C 2.179688 -1.890625 1.960938 -1.832031 1.828125 -1.71875 C 1.703125 -1.613281 1.640625 -1.484375 1.640625 -1.328125 C 1.640625 -1.148438 1.703125 -1.015625 1.828125 -0.921875 C 1.960938 -0.828125 2.140625 -0.78125 2.359375 -0.78125 Z M 2.359375 -0.78125 "/></g></g></g><g fill="#000000" fill-opacity="1"><g transform="translate(113.964104, 254.353646)"><g><path d="M 0.578125 0 L 0.578125 -4.40625 L 1.578125 -4.40625 L 1.671875 -3.65625 C 1.804688 -3.914062 2 -4.125 2.25 -4.28125 C 2.507812 -4.4375 2.816406 -4.515625 3.171875 -4.515625 C 3.710938 -4.515625 4.132812 -4.34375 4.4375 -4 C 4.738281 -3.65625 4.890625 -3.148438 4.890625 -2.484375 L 4.890625 0 L 3.75 0 L 3.75 -2.375 C 3.75 -2.757812 3.671875 -3.050781 3.515625 -3.25 C 3.367188 -3.445312 3.128906 -3.546875 2.796875 -3.546875 C 2.484375 -3.546875 2.222656 -3.429688 2.015625 -3.203125 C 1.816406 -2.984375 1.71875 -2.671875 1.71875 -2.265625 L 1.71875 0 Z M 0.578125 0 "/></g></g></g><g fill="#000000" fill-opacity="1"><g transform="translate(119.354826, 254.353646)"><g><path d="M 2.71875 0.109375 C 2.269531 0.109375 1.875 0.015625 1.53125 -0.171875 C 1.1875 -0.367188 0.914062 -0.632812 0.71875 -0.96875 C 0.53125 -1.3125 0.4375 -1.710938 0.4375 -2.171875 C 0.4375 -2.617188 0.53125 -3.019531 0.71875 -3.375 C 0.914062 -3.726562 1.179688 -4.003906 1.515625 -4.203125 C 1.859375 -4.410156 2.257812 -4.515625 2.71875 -4.515625 C 3.15625 -4.515625 3.535156 -4.414062 3.859375 -4.21875 C 4.191406 -4.03125 4.453125 -3.769531 4.640625 -3.4375 C 4.828125 -3.113281 4.921875 -2.753906 4.921875 -2.359375 C 4.921875 -2.285156 4.921875 -2.210938 4.921875 -2.140625 C 4.921875 -2.078125 4.914062 -2.003906 4.90625 -1.921875 L 1.5625 -1.921875 C 1.582031 -1.578125 1.703125 -1.304688 1.921875 -1.109375 C 2.140625 -0.921875 2.398438 -0.828125 2.703125 -0.828125 C 2.929688 -0.828125 3.125 -0.878906 3.28125 -0.984375 C 3.4375 -1.085938 3.554688 -1.222656 3.640625 -1.390625 L 4.796875 -1.390625 C 4.710938 -1.109375 4.570312 -0.851562 4.375 -0.625 C 4.1875 -0.394531 3.953125 -0.210938 3.671875 -0.078125 C 3.390625 0.046875 3.070312 0.109375 2.71875 0.109375 Z M 2.71875 -3.578125 C 2.445312 -3.578125 2.203125 -3.5 1.984375 -3.34375 C 1.773438 -3.1875 1.640625 -2.953125 1.578125 -2.640625 L 3.765625 -2.640625 C 3.753906 -2.929688 3.648438 -3.160156 3.453125 -3.328125 C 3.253906 -3.492188 3.007812 -3.578125 2.71875 -3.578125 Z M 2.71875 -3.578125 "/></g></g></g><g fill="#000000" fill-opacity="1"><g transform="translate(124.656878, 254.353646)"><g><path d="M 1.1875 -5.078125 C 0.976562 -5.078125 0.804688 -5.140625 0.671875 -5.265625 C 0.546875 -5.390625 0.484375 -5.546875 0.484375 -5.734375 C 0.484375 -5.929688 0.546875 -6.085938 0.671875 -6.203125 C 0.804688 -6.328125 0.976562 -6.390625 1.1875 -6.390625 C 1.394531 -6.390625 1.566406 -6.328125 1.703125 -6.203125 C 1.835938 -6.085938 1.90625 -5.929688 1.90625 -5.734375 C 1.90625 -5.546875 1.835938 -5.390625 1.703125 -5.265625 C 1.566406 -5.140625 1.394531 -5.078125 1.1875 -5.078125 Z M 0.625 0 L 0.625 -4.40625 L 1.75 -4.40625 L 1.75 0 Z M 0.625 0 "/></g></g></g><g fill="#000000" fill-opacity="1"><g transform="translate(127.024183, 254.353646)"><g><path d="M 0.578125 0 L 0.578125 -4.40625 L 1.59375 -4.40625 L 1.6875 -3.578125 C 1.851562 -3.859375 2.070312 -4.082031 2.34375 -4.25 C 2.625 -4.425781 2.945312 -4.515625 3.3125 -4.515625 L 3.3125 -3.3125 L 3 -3.3125 C 2.75 -3.3125 2.523438 -3.269531 2.328125 -3.1875 C 2.140625 -3.113281 1.988281 -2.984375 1.875 -2.796875 C 1.769531 -2.609375 1.71875 -2.34375 1.71875 -2 L 1.71875 0 Z M 0.578125 0 "/></g></g></g><g fill="#000000" fill-opacity="1"><g transform="translate(130.455434, 254.353646)"><g><path d="M 2.6875 0.109375 C 2.257812 0.109375 1.875 0.0078125 1.53125 -0.1875 C 1.195312 -0.382812 0.929688 -0.65625 0.734375 -1 C 0.535156 -1.34375 0.4375 -1.742188 0.4375 -2.203125 C 0.4375 -2.660156 0.535156 -3.0625 0.734375 -3.40625 C 0.929688 -3.75 1.203125 -4.019531 1.546875 -4.21875 C 1.890625 -4.414062 2.273438 -4.515625 2.703125 -4.515625 C 3.117188 -4.515625 3.492188 -4.414062 3.828125 -4.21875 C 4.171875 -4.019531 4.441406 -3.75 4.640625 -3.40625 C 4.835938 -3.0625 4.9375 -2.660156 4.9375 -2.203125 C 4.9375 -1.742188 4.835938 -1.34375 4.640625 -1 C 4.441406 -0.65625 4.171875 -0.382812 3.828125 -0.1875 C 3.484375 0.0078125 3.101562 0.109375 2.6875 0.109375 Z M 2.6875 -0.875 C 2.988281 -0.875 3.25 -0.984375 3.46875 -1.203125 C 3.6875 -1.429688 3.796875 -1.765625 3.796875 -2.203125 C 3.796875 -2.640625 3.6875 -2.96875 3.46875 -3.1875 C 3.25 -3.40625 2.992188 -3.515625 2.703125 -3.515625 C 2.398438 -3.515625 2.140625 -3.40625 1.921875 -3.1875 C 1.703125 -2.96875 1.59375 -2.640625 1.59375 -2.203125 C 1.59375 -1.765625 1.703125 -1.429688 1.921875 -1.203125 C 2.140625 -0.984375 2.394531 -0.875 2.6875 -0.875 Z M 2.6875 -0.875 "/></g></g></g><g fill="#000000" fill-opacity="1"><g transform="translate(229.309384, 254.353646)"><g><path d="M 0.609375 0 L 0.609375 -6.21875 L 4.609375 -6.21875 L 4.609375 -5.296875 L 1.734375 -5.296875 L 1.734375 -3.5625 L 4.0625 -3.5625 L 4.0625 -2.65625 L 1.734375 -2.65625 L 1.734375 0 Z M 0.609375 0 "/></g></g></g><g fill="#000000" fill-opacity="1"><g transform="translate(233.964168, 254.353646)"><g><path d="M 2.71875 0.109375 C 2.269531 0.109375 1.875 0.015625 1.53125 -0.171875 C 1.1875 -0.367188 0.914062 -0.632812 0.71875 -0.96875 C 0.53125 -1.3125 0.4375 -1.710938 0.4375 -2.171875 C 0.4375 -2.617188 0.53125 -3.019531 0.71875 -3.375 C 0.914062 -3.726562 1.179688 -4.003906 1.515625 -4.203125 C 1.859375 -4.410156 2.257812 -4.515625 2.71875 -4.515625 C 3.15625 -4.515625 3.535156 -4.414062 3.859375 -4.21875 C 4.191406 -4.03125 4.453125 -3.769531 4.640625 -3.4375 C 4.828125 -3.113281 4.921875 -2.753906 4.921875 -2.359375 C 4.921875 -2.285156 4.921875 -2.210938 4.921875 -2.140625 C 4.921875 -2.078125 4.914062 -2.003906 4.90625 -1.921875 L 1.5625 -1.921875 C 1.582031 -1.578125 1.703125 -1.304688 1.921875 -1.109375 C 2.140625 -0.921875 2.398438 -0.828125 2.703125 -0.828125 C 2.929688 -0.828125 3.125 -0.878906 3.28125 -0.984375 C 3.4375 -1.085938 3.554688 -1.222656 3.640625 -1.390625 L 4.796875 -1.390625 C 4.710938 -1.109375 4.570312 -0.851562 4.375 -0.625 C 4.1875 -0.394531 3.953125 -0.210938 3.671875 -0.078125 C 3.390625 0.046875 3.070312 0.109375 2.71875 0.109375 Z M 2.71875 -3.578125 C 2.445312 -3.578125 2.203125 -3.5 1.984375 -3.34375 C 1.773438 -3.1875 1.640625 -2.953125 1.578125 -2.640625 L 3.765625 -2.640625 C 3.753906 -2.929688 3.648438 -3.160156 3.453125 -3.328125 C 3.253906 -3.492188 3.007812 -3.578125 2.71875 -3.578125 Z M 2.71875 -3.578125 "/></g></g></g><g fill="#000000" fill-opacity="1"><g transform="translate(239.088872, 254.353646)"><g><path d="M 1.765625 0 L 0.15625 -4.40625 L 1.34375 -4.40625 L 2.453125 -1.078125 L 3.578125 -4.40625 L 4.765625 -4.40625 L 3.140625 0 Z M 1.765625 0 "/></g></g></g><g fill="#000000" fill-opacity="1"><g transform="translate(243.779126, 254.353646)"><g><path d="M 2.71875 0.109375 C 2.269531 0.109375 1.875 0.015625 1.53125 -0.171875 C 1.1875 -0.367188 0.914062 -0.632812 0.71875 -0.96875 C 0.53125 -1.3125 0.4375 -1.710938 0.4375 -2.171875 C 0.4375 -2.617188 0.53125 -3.019531 0.71875 -3.375 C 0.914062 -3.726562 1.179688 -4.003906 1.515625 -4.203125 C 1.859375 -4.410156 2.257812 -4.515625 2.71875 -4.515625 C 3.15625 -4.515625 3.535156 -4.414062 3.859375 -4.21875 C 4.191406 -4.03125 4.453125 -3.769531 4.640625 -3.4375 C 4.828125 -3.113281 4.921875 -2.753906 4.921875 -2.359375 C 4.921875 -2.285156 4.921875 -2.210938 4.921875 -2.140625 C 4.921875 -2.078125 4.914062 -2.003906 4.90625 -1.921875 L 1.5625 -1.921875 C 1.582031 -1.578125 1.703125 -1.304688 1.921875 -1.109375 C 2.140625 -0.921875 2.398438 -0.828125 2.703125 -0.828125 C 2.929688 -0.828125 3.125 -0.878906 3.28125 -0.984375 C 3.4375 -1.085938 3.554688 -1.222656 3.640625 -1.390625 L 4.796875 -1.390625 C 4.710938 -1.109375 4.570312 -0.851562 4.375 -0.625 C 4.1875 -0.394531 3.953125 -0.210938 3.671875 -0.078125 C 3.390625 0.046875 3.070312 0.109375 2.71875 0.109375 Z M 2.71875 -3.578125 C 2.445312 -3.578125 2.203125 -3.5 1.984375 -3.34375 C 1.773438 -3.1875 1.640625 -2.953125 1.578125 -2.640625 L 3.765625 -2.640625 C 3.753906 -2.929688 3.648438 -3.160156 3.453125 -3.328125 C 3.253906 -3.492188 3.007812 -3.578125 2.71875 -3.578125 Z M 2.71875 -3.578125 "/></g></g></g><g fill="#000000" fill-opacity="1"><g transform="translate(249.081179, 254.353646)"><g><path d="M 0.578125 0 L 0.578125 -4.40625 L 1.59375 -4.40625 L 1.6875 -3.578125 C 1.851562 -3.859375 2.070312 -4.082031 2.34375 -4.25 C 2.625 -4.425781 2.945312 -4.515625 3.3125 -4.515625 L 3.3125 -3.3125 L 3 -3.3125 C 2.75 -3.3125 2.523438 -3.269531 2.328125 -3.1875 C 2.140625 -3.113281 1.988281 -2.984375 1.875 -2.796875 C 1.769531 -2.609375 1.71875 -2.34375 1.71875 -2 L 1.71875 0 Z M 0.578125 0 "/></g></g></g><g fill="#000000" fill-opacity="1"><g transform="translate(252.51243, 254.353646)"><g><path d="M 2.71875 0.109375 C 2.269531 0.109375 1.875 0.015625 1.53125 -0.171875 C 1.1875 -0.367188 0.914062 -0.632812 0.71875 -0.96875 C 0.53125 -1.3125 0.4375 -1.710938 0.4375 -2.171875 C 0.4375 -2.617188 0.53125 -3.019531 0.71875 -3.375 C 0.914062 -3.726562 1.179688 -4.003906 1.515625 -4.203125 C 1.859375 -4.410156 2.257812 -4.515625 2.71875 -4.515625 C 3.15625 -4.515625 3.535156 -4.414062 3.859375 -4.21875 C 4.191406 -4.03125 4.453125 -3.769531 4.640625 -3.4375 C 4.828125 -3.113281 4.921875 -2.753906 4.921875 -2.359375 C 4.921875 -2.285156 4.921875 -2.210938 4.921875 -2.140625 C 4.921875 -2.078125 4.914062 -2.003906 4.90625 -1.921875 L 1.5625 -1.921875 C 1.582031 -1.578125 1.703125 -1.304688 1.921875 -1.109375 C 2.140625 -0.921875 2.398438 -0.828125 2.703125 -0.828125 C 2.929688 -0.828125 3.125 -0.878906 3.28125 -0.984375 C 3.4375 -1.085938 3.554688 -1.222656 3.640625 -1.390625 L 4.796875 -1.390625 C 4.710938 -1.109375 4.570312 -0.851562 4.375 -0.625 C 4.1875 -0.394531 3.953125 -0.210938 3.671875 -0.078125 C 3.390625 0.046875 3.070312 0.109375 2.71875 0.109375 Z M 2.71875 -3.578125 C 2.445312 -3.578125 2.203125 -3.5 1.984375 -3.34375 C 1.773438 -3.1875 1.640625 -2.953125 1.578125 -2.640625 L 3.765625 -2.640625 C 3.753906 -2.929688 3.648438 -3.160156 3.453125 -3.328125 C 3.253906 -3.492188 3.007812 -3.578125 2.71875 -3.578125 Z M 2.71875 -3.578125 "/></g></g></g><g fill="#000000" fill-opacity="1"><g transform="translate(257.814483, 254.353646)"><g><path d="M 1.1875 -5.078125 C 0.976562 -5.078125 0.804688 -5.140625 0.671875 -5.265625 C 0.546875 -5.390625 0.484375 -5.546875 0.484375 -5.734375 C 0.484375 -5.929688 0.546875 -6.085938 0.671875 -6.203125 C 0.804688 -6.328125 0.976562 -6.390625 1.1875 -6.390625 C 1.394531 -6.390625 1.566406 -6.328125 1.703125 -6.203125 C 1.835938 -6.085938 1.90625 -5.929688 1.90625 -5.734375 C 1.90625 -5.546875 1.835938 -5.390625 1.703125 -5.265625 C 1.566406 -5.140625 1.394531 -5.078125 1.1875 -5.078125 Z M 0.625 0 L 0.625 -4.40625 L 1.75 -4.40625 L 1.75 0 Z M 0.625 0 "/></g></g></g><g fill="#000000" fill-opacity="1"><g transform="translate(260.181788, 254.353646)"><g><path d="M 0.578125 0 L 0.578125 -4.40625 L 1.59375 -4.40625 L 1.6875 -3.578125 C 1.851562 -3.859375 2.070312 -4.082031 2.34375 -4.25 C 2.625 -4.425781 2.945312 -4.515625 3.3125 -4.515625 L 3.3125 -3.3125 L 3 -3.3125 C 2.75 -3.3125 2.523438 -3.269531 2.328125 -3.1875 C 2.140625 -3.113281 1.988281 -2.984375 1.875 -2.796875 C 1.769531 -2.609375 1.71875 -2.34375 1.71875 -2 L 1.71875 0 Z M 0.578125 0 "/></g></g></g><g fill="#000000" fill-opacity="1"><g transform="translate(263.613039, 254.353646)"><g><path d="M 2.6875 0.109375 C 2.257812 0.109375 1.875 0.0078125 1.53125 -0.1875 C 1.195312 -0.382812 0.929688 -0.65625 0.734375 -1 C 0.535156 -1.34375 0.4375 -1.742188 0.4375 -2.203125 C 0.4375 -2.660156 0.535156 -3.0625 0.734375 -3.40625 C 0.929688 -3.75 1.203125 -4.019531 1.546875 -4.21875 C 1.890625 -4.414062 2.273438 -4.515625 2.703125 -4.515625 C 3.117188 -4.515625 3.492188 -4.414062 3.828125 -4.21875 C 4.171875 -4.019531 4.441406 -3.75 4.640625 -3.40625 C 4.835938 -3.0625 4.9375 -2.660156 4.9375 -2.203125 C 4.9375 -1.742188 4.835938 -1.34375 4.640625 -1 C 4.441406 -0.65625 4.171875 -0.382812 3.828125 -0.1875 C 3.484375 0.0078125 3.101562 0.109375 2.6875 0.109375 Z M 2.6875 -0.875 C 2.988281 -0.875 3.25 -0.984375 3.46875 -1.203125 C 3.6875 -1.429688 3.796875 -1.765625 3.796875 -2.203125 C 3.796875 -2.640625 3.6875 -2.96875 3.46875 -3.1875 C 3.25 -3.40625 2.992188 -3.515625 2.703125 -3.515625 C 2.398438 -3.515625 2.140625 -3.40625 1.921875 -3.1875 C 1.703125 -2.96875 1.59375 -2.640625 1.59375 -2.203125 C 1.59375 -1.765625 1.703125 -1.429688 1.921875 -1.203125 C 2.140625 -0.984375 2.394531 -0.875 2.6875 -0.875 Z M 2.6875 -0.875 "/></g></g></g><g fill="#000000" fill-opacity="1"><g transform="translate(364.982327, 254.353646)"><g><path d="M 0.609375 0 L 0.609375 -6.21875 L 1.953125 -6.21875 L 3.9375 -2.265625 L 5.890625 -6.21875 L 7.234375 -6.21875 L 7.234375 0 L 6.09375 0 L 6.09375 -4.28125 L 4.359375 -0.890625 L 3.46875 -0.890625 L 1.734375 -4.28125 L 1.734375 0 Z M 0.609375 0 "/></g></g></g><g fill="#000000" fill-opacity="1"><g transform="translate(372.811283, 254.353646)"><g><path d="M 2.09375 0.109375 C 1.71875 0.109375 1.40625 0.0507812 1.15625 -0.0625 C 0.914062 -0.1875 0.734375 -0.347656 0.609375 -0.546875 C 0.492188 -0.753906 0.4375 -0.976562 0.4375 -1.21875 C 0.4375 -1.632812 0.597656 -1.96875 0.921875 -2.21875 C 1.242188 -2.46875 1.722656 -2.59375 2.359375 -2.59375 L 3.484375 -2.59375 L 3.484375 -2.703125 C 3.484375 -3.003906 3.394531 -3.222656 3.21875 -3.359375 C 3.050781 -3.503906 2.835938 -3.578125 2.578125 -3.578125 C 2.347656 -3.578125 2.144531 -3.519531 1.96875 -3.40625 C 1.800781 -3.300781 1.695312 -3.144531 1.65625 -2.9375 L 0.546875 -2.9375 C 0.578125 -3.257812 0.6875 -3.535156 0.875 -3.765625 C 1.0625 -4.003906 1.300781 -4.1875 1.59375 -4.3125 C 1.894531 -4.445312 2.226562 -4.515625 2.59375 -4.515625 C 3.21875 -4.515625 3.707031 -4.351562 4.0625 -4.03125 C 4.425781 -3.71875 4.609375 -3.273438 4.609375 -2.703125 L 4.609375 0 L 3.640625 0 L 3.546875 -0.703125 C 3.410156 -0.472656 3.222656 -0.28125 2.984375 -0.125 C 2.753906 0.03125 2.457031 0.109375 2.09375 0.109375 Z M 2.359375 -0.78125 C 2.679688 -0.78125 2.929688 -0.882812 3.109375 -1.09375 C 3.285156 -1.3125 3.398438 -1.578125 3.453125 -1.890625 L 2.484375 -1.890625 C 2.179688 -1.890625 1.960938 -1.832031 1.828125 -1.71875 C 1.703125 -1.613281 1.640625 -1.484375 1.640625 -1.328125 C 1.640625 -1.148438 1.703125 -1.015625 1.828125 -0.921875 C 1.960938 -0.828125 2.140625 -0.78125 2.359375 -0.78125 Z M 2.359375 -0.78125 "/></g></g></g><g fill="#000000" fill-opacity="1"><g transform="translate(377.927145, 254.353646)"><g><path d="M 0.578125 0 L 0.578125 -4.40625 L 1.59375 -4.40625 L 1.6875 -3.578125 C 1.851562 -3.859375 2.070312 -4.082031 2.34375 -4.25 C 2.625 -4.425781 2.945312 -4.515625 3.3125 -4.515625 L 3.3125 -3.3125 L 3 -3.3125 C 2.75 -3.3125 2.523438 -3.269531 2.328125 -3.1875 C 2.140625 -3.113281 1.988281 -2.984375 1.875 -2.796875 C 1.769531 -2.609375 1.71875 -2.34375 1.71875 -2 L 1.71875 0 Z M 0.578125 0 "/></g></g></g><g fill="#000000" fill-opacity="1"><g transform="translate(381.358396, 254.353646)"><g><path d="M 2.734375 0.109375 C 2.285156 0.109375 1.890625 0.0078125 1.546875 -0.1875 C 1.203125 -0.382812 0.929688 -0.65625 0.734375 -1 C 0.535156 -1.351562 0.4375 -1.753906 0.4375 -2.203125 C 0.4375 -2.648438 0.535156 -3.046875 0.734375 -3.390625 C 0.929688 -3.742188 1.203125 -4.019531 1.546875 -4.21875 C 1.890625 -4.414062 2.285156 -4.515625 2.734375 -4.515625 C 3.296875 -4.515625 3.769531 -4.363281 4.15625 -4.0625 C 4.539062 -3.769531 4.785156 -3.367188 4.890625 -2.859375 L 3.6875 -2.859375 C 3.632812 -3.066406 3.519531 -3.234375 3.34375 -3.359375 C 3.164062 -3.484375 2.957031 -3.546875 2.71875 -3.546875 C 2.40625 -3.546875 2.140625 -3.425781 1.921875 -3.1875 C 1.703125 -2.945312 1.59375 -2.617188 1.59375 -2.203125 C 1.59375 -1.785156 1.703125 -1.457031 1.921875 -1.21875 C 2.140625 -0.976562 2.40625 -0.859375 2.71875 -0.859375 C 2.957031 -0.859375 3.164062 -0.914062 3.34375 -1.03125 C 3.519531 -1.15625 3.632812 -1.328125 3.6875 -1.546875 L 4.890625 -1.546875 C 4.785156 -1.046875 4.539062 -0.644531 4.15625 -0.34375 C 3.769531 -0.0390625 3.296875 0.109375 2.734375 0.109375 Z M 1.9375 2.359375 L 1.9375 1.703125 L 2.9375 1.703125 C 3.25 1.703125 3.40625 1.597656 3.40625 1.390625 C 3.40625 1.179688 3.25 1.078125 2.9375 1.078125 L 2.390625 1.078125 L 2.390625 -0.03125 L 3.09375 -0.03125 L 3.09375 0.46875 C 3.300781 0.46875 3.488281 0.5 3.65625 0.5625 C 3.832031 0.625 3.972656 0.722656 4.078125 0.859375 C 4.191406 1.003906 4.25 1.1875 4.25 1.40625 C 4.25 1.726562 4.132812 1.96875 3.90625 2.125 C 3.675781 2.28125 3.40625 2.359375 3.09375 2.359375 Z M 1.9375 2.359375 "/></g></g></g><g fill="#000000" fill-opacity="1"><g transform="translate(386.678181, 254.353646)"><g><path d="M 2.6875 0.109375 C 2.257812 0.109375 1.875 0.0078125 1.53125 -0.1875 C 1.195312 -0.382812 0.929688 -0.65625 0.734375 -1 C 0.535156 -1.34375 0.4375 -1.742188 0.4375 -2.203125 C 0.4375 -2.660156 0.535156 -3.0625 0.734375 -3.40625 C 0.929688 -3.75 1.203125 -4.019531 1.546875 -4.21875 C 1.890625 -4.414062 2.273438 -4.515625 2.703125 -4.515625 C 3.117188 -4.515625 3.492188 -4.414062 3.828125 -4.21875 C 4.171875 -4.019531 4.441406 -3.75 4.640625 -3.40625 C 4.835938 -3.0625 4.9375 -2.660156 4.9375 -2.203125 C 4.9375 -1.742188 4.835938 -1.34375 4.640625 -1 C 4.441406 -0.65625 4.171875 -0.382812 3.828125 -0.1875 C 3.484375 0.0078125 3.101562 0.109375 2.6875 0.109375 Z M 2.6875 -0.875 C 2.988281 -0.875 3.25 -0.984375 3.46875 -1.203125 C 3.6875 -1.429688 3.796875 -1.765625 3.796875 -2.203125 C 3.796875 -2.640625 3.6875 -2.96875 3.46875 -3.1875 C 3.25 -3.40625 2.992188 -3.515625 2.703125 -3.515625 C 2.398438 -3.515625 2.140625 -3.40625 1.921875 -3.1875 C 1.703125 -2.96875 1.59375 -2.640625 1.59375 -2.203125 C 1.59375 -1.765625 1.703125 -1.429688 1.921875 -1.203125 C 2.140625 -0.984375 2.394531 -0.875 2.6875 -0.875 Z M 2.6875 -0.875 "/></g></g></g><g mask="url(#0f13cf1abf)"><g transform="matrix(1, 0, 0, 1, 61, 242)"><g clip-path="url(#fb3218a9d3)"><g clip-path="url(#e0faafbb28)"><path stroke-linecap="butt" transform="matrix(0.388927, 0, 0, 0.388927, 1.218208, -150.518077)" fill="none" stroke-linejoin="miter" d="M 0.00139376 389.36905 L 961.27049 389.36905 " stroke="#000000" stroke-width="1" stroke-opacity="1" stroke-miterlimit="4"/></g></g></g></g><g mask="url(#a75cbeb93a)"><g transform="matrix(1, 0, 0, 1, 61, 204)"><g clip-path="url(#e26bb0027d)"><g clip-path="url(#64a86927ca)"><path stroke-linecap="butt" transform="matrix(0.388927, 0, 0, 0.388927, 1.218208, -112.51807)" fill="none" stroke-linejoin="miter" d="M 0.00139376 292.025834 L 961.27049 292.025834 " stroke="#000000" stroke-width="1" stroke-opacity="1" stroke-miterlimit="4"/></g></g></g></g><g mask="url(#3de4329675)"><g transform="matrix(1, 0, 0, 1, 61, 166)"><g clip-path="url(#8d6cdbd61d)"><g clip-path="url(#c28ae238f4)"><path stroke-linecap="butt" transform="matrix(0.388927, 0, 0, 0.388927, 1.218208, -74.51807)" fill="none" stroke-linejoin="miter" d="M 0.00139376 194.682636 L 961.27049 194.682636 " stroke="#000000" stroke-width="1" stroke-opacity="1" stroke-miterlimit="4"/></g></g></g></g><g mask="url(#ca8b22f5d7)"><g transform="matrix(1, 0, 0, 1, 61, 128)"><g clip-path="url(#1a21613691)"><g clip-path="url(#795fae3001)"><path stroke-linecap="butt" transform="matrix(0.388927, 0, 0, 0.388927, 1.218208, -36.51807)" fill="none" stroke-linejoin="miter" d="M 0.00139376 97.33944 L 961.27049 97.33944 " stroke="#000000" stroke-width="1" stroke-opacity="1" stroke-miterlimit="4"/></g></g></g></g><g mask="url(#4fd386bb44)"><g transform="matrix(1, 0, 0, 1, 61, 90)"><g clip-path="url(#97e02c783b)"><g clip-path="url(#c3870014af)"><path stroke-linecap="butt" transform="matrix(0.388927, 0, 0, 0.388927, 1.218208, 1.48193)" fill="none" stroke-linejoin="miter" d="M 0.00139376 -0.00375707 L 961.27049 -0.00375707 " stroke="#000000" stroke-width="1" stroke-opacity="1" stroke-miterlimit="4"/></g></g></g></g><g clip-path="url(#deb315d546)"><path fill="#eb0033" d="M 71.488281 129.339844 L 90.027344 129.339844 C 90.636719 129.339844 91.238281 129.402344 91.835938 129.519531 C 92.429688 129.636719 93.011719 129.8125 93.574219 130.046875 C 94.136719 130.28125 94.667969 130.566406 95.175781 130.902344 C 95.683594 131.242188 96.148438 131.625 96.582031 132.054688 C 97.011719 132.488281 97.394531 132.953125 97.734375 133.460938 C 98.070312 133.96875 98.355469 134.5 98.589844 135.0625 C 98.824219 135.625 99 136.207031 99.117188 136.800781 C 99.234375 137.398438 99.296875 138 99.296875 138.609375 L 99.296875 242.917969 C 99.296875 243.527344 99.234375 244.128906 99.117188 244.726562 C 99 245.324219 98.824219 245.902344 98.589844 246.464844 C 98.355469 247.027344 98.070312 247.5625 97.734375 248.070312 C 97.394531 248.574219 97.011719 249.042969 96.582031 249.472656 C 96.148438 249.902344 95.683594 250.289062 95.175781 250.625 C 94.667969 250.964844 94.136719 251.25 93.574219 251.484375 C 93.011719 251.714844 92.429688 251.890625 91.835938 252.011719 C 91.238281 252.128906 90.636719 252.1875 90.027344 252.1875 L 71.488281 252.1875 C 70.878906 252.1875 70.277344 252.128906 69.679688 252.011719 C 69.082031 251.890625 68.503906 251.714844 67.941406 251.484375 C 67.378906 251.25 66.84375 250.964844 66.335938 250.625 C 65.832031 250.289062 65.363281 249.902344 64.933594 249.472656 C 64.503906 249.042969 64.117188 248.574219 63.78125 248.070312 C 63.441406 247.5625 63.15625 247.027344 62.921875 246.464844 C 62.691406 245.902344 62.515625 245.324219 62.394531 244.726562 C 62.277344 244.128906 62.21875 243.527344 62.21875 242.917969 L 62.21875 138.609375 C 62.21875 138 62.277344 137.398438 62.394531 136.800781 C 62.515625 136.207031 62.691406 135.625 62.921875 135.0625 C 63.15625 134.5 63.441406 133.96875 63.78125 133.460938 C 64.117188 132.953125 64.503906 132.488281 64.933594 132.054688 C 65.363281 131.625 65.832031 131.242188 66.335938 130.902344 C 66.84375 130.566406 67.378906 130.28125 67.941406 130.046875 C 68.503906 129.8125 69.082031 129.636719 69.679688 129.519531 C 70.277344 129.402344 70.878906 129.339844 71.488281 129.339844 Z M 71.488281 129.339844 " fill-opacity="1" fill-rule="nonzero"/></g><g clip-path="url(#7fbd8e02eb)"><path fill="#890019" d="M 110.515625 167.199219 L 129.054688 167.199219 C 129.664062 167.199219 130.265625 167.261719 130.863281 167.378906 C 131.460938 167.496094 132.039062 167.671875 132.601562 167.90625 C 133.164062 168.140625 133.699219 168.425781 134.203125 168.761719 C 134.710938 169.101562 135.179688 169.484375 135.609375 169.914062 C 136.039062 170.347656 136.425781 170.8125 136.761719 171.320312 C 137.101562 171.828125 137.386719 172.359375 137.617188 172.921875 C 137.851562 173.484375 138.027344 174.066406 138.144531 174.660156 C 138.265625 175.257812 138.324219 175.859375 138.324219 176.46875 L 138.324219 242.917969 C 138.324219 243.527344 138.265625 244.128906 138.144531 244.726562 C 138.027344 245.324219 137.851562 245.902344 137.617188 246.464844 C 137.386719 247.027344 137.101562 247.5625 136.761719 248.070312 C 136.425781 248.574219 136.039062 249.042969 135.609375 249.472656 C 135.179688 249.902344 134.710938 250.289062 134.203125 250.625 C 133.699219 250.964844 133.164062 251.25 132.601562 251.484375 C 132.039062 251.714844 131.460938 251.890625 130.863281 252.011719 C 130.265625 252.128906 129.664062 252.1875 129.054688 252.1875 L 110.515625 252.1875 C 109.90625 252.1875 109.304688 252.128906 108.707031 252.011719 C 108.109375 251.890625 107.53125 251.714844 106.96875 251.484375 C 106.40625 251.25 105.871094 250.964844 105.367188 250.625 C 104.859375 250.289062 104.390625 249.902344 103.960938 249.472656 C 103.53125 249.042969 103.148438 248.574219 102.808594 248.070312 C 102.472656 247.5625 102.183594 247.027344 101.953125 246.464844 C 101.71875 245.902344 101.542969 245.324219 101.425781 244.726562 C 101.304688 244.128906 101.246094 243.527344 101.246094 242.917969 L 101.246094 176.46875 C 101.246094 175.859375 101.304688 175.257812 101.425781 174.660156 C 101.542969 174.066406 101.71875 173.484375 101.953125 172.921875 C 102.183594 172.359375 102.472656 171.828125 102.808594 171.320312 C 103.148438 170.8125 103.53125 170.347656 103.960938 169.914062 C 104.390625 169.484375 104.859375 169.101562 105.367188 168.761719 C 105.871094 168.425781 106.40625 168.140625 106.96875 167.90625 C 107.53125 167.671875 108.109375 167.496094 108.707031 167.378906 C 109.304688 167.261719 109.90625 167.199219 110.515625 167.199219 Z M 110.515625 167.199219 " fill-opacity="1" fill-rule="nonzero"/></g><g clip-path="url(#1a03d9de37)"><path fill="#f6a02a" d="M 149.546875 182.34375 L 168.082031 182.34375 C 168.691406 182.34375 169.296875 182.402344 169.890625 182.523438 C 170.488281 182.640625 171.070312 182.816406 171.632812 183.050781 C 172.191406 183.28125 172.726562 183.566406 173.234375 183.90625 C 173.738281 184.246094 174.207031 184.628906 174.636719 185.058594 C 175.070312 185.488281 175.453125 185.957031 175.789062 186.464844 C 176.128906 186.96875 176.414062 187.503906 176.648438 188.066406 C 176.878906 188.628906 177.054688 189.207031 177.175781 189.804688 C 177.292969 190.402344 177.351562 191.003906 177.351562 191.613281 L 177.351562 242.917969 C 177.351562 243.527344 177.292969 244.128906 177.175781 244.726562 C 177.054688 245.324219 176.878906 245.902344 176.648438 246.464844 C 176.414062 247.027344 176.128906 247.5625 175.789062 248.070312 C 175.453125 248.574219 175.070312 249.042969 174.636719 249.472656 C 174.207031 249.902344 173.738281 250.289062 173.234375 250.625 C 172.726562 250.964844 172.191406 251.25 171.632812 251.484375 C 171.070312 251.714844 170.488281 251.890625 169.890625 252.011719 C 169.296875 252.128906 168.691406 252.1875 168.082031 252.1875 L 149.546875 252.1875 C 148.9375 252.1875 148.332031 252.128906 147.738281 252.011719 C 147.140625 251.890625 146.558594 251.714844 145.996094 251.484375 C 145.4375 251.25 144.902344 250.964844 144.394531 250.625 C 143.890625 250.289062 143.421875 249.902344 142.992188 249.472656 C 142.558594 249.042969 142.175781 248.574219 141.839844 248.070312 C 141.5 247.5625 141.214844 247.027344 140.980469 246.464844 C 140.75 245.902344 140.574219 245.324219 140.453125 244.726562 C 140.335938 244.128906 140.277344 243.527344 140.277344 242.917969 L 140.277344 191.613281 C 140.277344 191.003906 140.335938 190.402344 140.453125 189.804688 C 140.574219 189.207031 140.75 188.628906 140.980469 188.066406 C 141.214844 187.503906 141.5 186.96875 141.839844 186.464844 C 142.175781 185.957031 142.558594 185.488281 142.992188 185.058594 C 143.421875 184.628906 143.890625 184.246094 144.394531 183.90625 C 144.902344 183.566406 145.4375 183.28125 145.996094 183.050781 C 146.558594 182.816406 147.140625 182.640625 147.738281 182.523438 C 148.332031 182.402344 148.9375 182.34375 149.546875 182.34375 Z M 149.546875 182.34375 " fill-opacity="1" fill-rule="nonzero"/></g><g clip-path="url(#6c353375eb)"><path fill="#eb0033" d="M 200.851562 106.625 L 219.390625 106.625 C 220 106.625 220.601562 106.683594 221.199219 106.804688 C 221.796875 106.921875 222.375 107.097656 222.9375 107.332031 C 223.5 107.5625 224.035156 107.851562 224.542969 108.1875 C 225.046875 108.527344 225.515625 108.910156 225.945312 109.339844 C 226.375 109.769531 226.761719 110.238281 227.097656 110.746094 C 227.4375 111.25 227.722656 111.785156 227.953125 112.347656 C 228.1875 112.910156 228.363281 113.488281 228.484375 114.085938 C 228.601562 114.683594 228.660156 115.285156 228.660156 115.894531 L 228.660156 242.917969 C 228.660156 243.527344 228.601562 244.128906 228.484375 244.726562 C 228.363281 245.324219 228.1875 245.902344 227.953125 246.464844 C 227.722656 247.027344 227.4375 247.5625 227.097656 248.070312 C 226.761719 248.574219 226.375 249.042969 225.945312 249.472656 C 225.515625 249.902344 225.046875 250.289062 224.542969 250.625 C 224.035156 250.964844 223.5 251.25 222.9375 251.484375 C 222.375 251.714844 221.796875 251.890625 221.199219 252.011719 C 220.601562 252.128906 220 252.1875 219.390625 252.1875 L 200.851562 252.1875 C 200.242188 252.1875 199.640625 252.128906 199.042969 252.011719 C 198.449219 251.890625 197.867188 251.714844 197.304688 251.484375 C 196.742188 251.25 196.207031 250.964844 195.703125 250.625 C 195.195312 250.289062 194.730469 249.902344 194.296875 249.472656 C 193.867188 249.042969 193.484375 248.574219 193.144531 248.070312 C 192.808594 247.5625 192.523438 247.027344 192.289062 246.464844 C 192.054688 245.902344 191.878906 245.324219 191.761719 244.726562 C 191.644531 244.128906 191.582031 243.527344 191.582031 242.917969 L 191.582031 115.894531 C 191.582031 115.285156 191.644531 114.683594 191.761719 114.085938 C 191.878906 113.488281 192.054688 112.910156 192.289062 112.347656 C 192.523438 111.785156 192.808594 111.25 193.144531 110.746094 C 193.484375 110.238281 193.867188 109.769531 194.296875 109.339844 C 194.730469 108.910156 195.195312 108.527344 195.703125 108.1875 C 196.207031 107.851562 196.742188 107.5625 197.304688 107.332031 C 197.867188 107.097656 198.449219 106.921875 199.042969 106.804688 C 199.640625 106.683594 200.242188 106.625 200.851562 106.625 Z M 200.851562 106.625 " fill-opacity="1" fill-rule="nonzero"/></g><g clip-path="url(#55acb963ca)"><path fill="#890019" d="M 239.882812 121.769531 L 258.421875 121.769531 C 259.027344 121.769531 259.632812 121.828125 260.226562 121.949219 C 260.824219 122.066406 261.40625 122.242188 261.96875 122.476562 C 262.53125 122.707031 263.0625 122.992188 263.570312 123.332031 C 264.074219 123.667969 264.542969 124.054688 264.972656 124.484375 C 265.40625 124.914062 265.789062 125.382812 266.128906 125.890625 C 266.464844 126.394531 266.75 126.929688 266.984375 127.492188 C 267.214844 128.054688 267.390625 128.632812 267.511719 129.230469 C 267.628906 129.828125 267.6875 130.429688 267.6875 131.039062 L 267.6875 242.917969 C 267.6875 243.527344 267.628906 244.128906 267.511719 244.726562 C 267.390625 245.324219 267.214844 245.902344 266.984375 246.464844 C 266.75 247.027344 266.464844 247.5625 266.128906 248.070312 C 265.789062 248.574219 265.40625 249.042969 264.972656 249.472656 C 264.542969 249.902344 264.074219 250.289062 263.570312 250.625 C 263.0625 250.964844 262.53125 251.25 261.96875 251.484375 C 261.40625 251.714844 260.824219 251.890625 260.226562 252.011719 C 259.632812 252.128906 259.027344 252.1875 258.421875 252.1875 L 239.882812 252.1875 C 239.273438 252.1875 238.671875 252.128906 238.074219 252.011719 C 237.476562 251.890625 236.894531 251.714844 236.335938 251.484375 C 235.773438 251.25 235.238281 250.964844 234.730469 250.625 C 234.226562 250.289062 233.757812 249.902344 233.328125 249.472656 C 232.898438 249.042969 232.511719 248.574219 232.175781 248.070312 C 231.835938 247.5625 231.550781 247.027344 231.316406 246.464844 C 231.085938 245.902344 230.910156 245.324219 230.789062 244.726562 C 230.671875 244.128906 230.613281 243.527344 230.613281 242.917969 L 230.613281 131.039062 C 230.613281 130.429688 230.671875 129.828125 230.789062 129.230469 C 230.910156 128.632812 231.085938 128.054688 231.316406 127.492188 C 231.550781 126.929688 231.835938 126.394531 232.175781 125.890625 C 232.511719 125.382812 232.898438 124.914062 233.328125 124.484375 C 233.757812 124.054688 234.226562 123.667969 234.730469 123.332031 C 235.238281 122.992188 235.773438 122.707031 236.335938 122.476562 C 236.894531 122.242188 237.476562 122.066406 238.074219 121.949219 C 238.671875 121.828125 239.273438 121.769531 239.882812 121.769531 Z M 239.882812 121.769531 " fill-opacity="1" fill-rule="nonzero"/></g><g clip-path="url(#57403fb02e)"><path fill="#f6a02a" d="M 278.910156 152.058594 L 297.449219 152.058594 C 298.058594 152.058594 298.660156 152.117188 299.257812 152.234375 C 299.855469 152.355469 300.433594 152.53125 300.996094 152.761719 C 301.558594 152.996094 302.09375 153.28125 302.597656 153.617188 C 303.105469 153.957031 303.574219 154.339844 304.003906 154.773438 C 304.433594 155.203125 304.816406 155.671875 305.15625 156.175781 C 305.496094 156.683594 305.78125 157.214844 306.011719 157.777344 C 306.246094 158.339844 306.421875 158.921875 306.539062 159.519531 C 306.660156 160.113281 306.71875 160.71875 306.71875 161.328125 L 306.71875 242.917969 C 306.71875 243.527344 306.660156 244.128906 306.539062 244.726562 C 306.421875 245.324219 306.246094 245.902344 306.011719 246.464844 C 305.78125 247.027344 305.492188 247.5625 305.15625 248.070312 C 304.816406 248.574219 304.433594 249.042969 304.003906 249.472656 C 303.574219 249.902344 303.105469 250.289062 302.597656 250.625 C 302.09375 250.964844 301.558594 251.25 300.996094 251.484375 C 300.433594 251.714844 299.855469 251.890625 299.257812 252.011719 C 298.660156 252.128906 298.058594 252.1875 297.449219 252.1875 L 278.910156 252.1875 C 278.300781 252.1875 277.699219 252.128906 277.101562 252.011719 C 276.503906 251.890625 275.925781 251.714844 275.363281 251.484375 C 274.800781 251.25 274.265625 250.964844 273.761719 250.625 C 273.253906 250.289062 272.785156 249.902344 272.355469 249.472656 C 271.925781 249.042969 271.542969 248.574219 271.203125 248.070312 C 270.863281 247.5625 270.578125 247.027344 270.347656 246.464844 C 270.113281 245.902344 269.9375 245.324219 269.820312 244.726562 C 269.699219 244.128906 269.640625 243.527344 269.640625 242.917969 L 269.640625 161.328125 C 269.640625 160.71875 269.699219 160.113281 269.820312 159.519531 C 269.9375 158.921875 270.113281 158.339844 270.347656 157.777344 C 270.578125 157.214844 270.863281 156.683594 271.203125 156.175781 C 271.542969 155.671875 271.925781 155.203125 272.355469 154.773438 C 272.785156 154.339844 273.253906 153.957031 273.761719 153.617188 C 274.265625 153.28125 274.800781 152.996094 275.363281 152.761719 C 275.925781 152.53125 276.503906 152.355469 277.101562 152.234375 C 277.699219 152.117188 278.300781 152.058594 278.910156 152.058594 Z M 278.910156 152.058594 " fill-opacity="1" fill-rule="nonzero"/></g><g clip-path="url(#19bf9d3b87)"><path fill="#eb0033" d="M 330.21875 99.054688 L 348.757812 99.054688 C 349.363281 99.054688 349.96875 99.113281 350.566406 99.230469 C 351.160156 99.351562 351.742188 99.527344 352.304688 99.757812 C 352.867188 99.992188 353.398438 100.277344 353.90625 100.617188 C 354.414062 100.953125 354.878906 101.339844 355.3125 101.769531 C 355.742188 102.199219 356.125 102.667969 356.464844 103.171875 C 356.800781 103.679688 357.085938 104.214844 357.320312 104.777344 C 357.554688 105.339844 357.730469 105.917969 357.847656 106.515625 C 357.964844 107.113281 358.027344 107.714844 358.027344 108.324219 L 358.027344 242.917969 C 358.027344 243.527344 357.964844 244.128906 357.847656 244.726562 C 357.730469 245.324219 357.554688 245.902344 357.320312 246.464844 C 357.085938 247.027344 356.800781 247.5625 356.464844 248.070312 C 356.125 248.574219 355.742188 249.042969 355.3125 249.472656 C 354.878906 249.902344 354.410156 250.289062 353.90625 250.625 C 353.398438 250.964844 352.867188 251.25 352.304688 251.484375 C 351.742188 251.714844 351.160156 251.890625 350.566406 252.011719 C 349.96875 252.128906 349.363281 252.1875 348.757812 252.1875 L 330.21875 252.1875 C 329.609375 252.1875 329.007812 252.128906 328.410156 252.011719 C 327.8125 251.890625 327.234375 251.714844 326.671875 251.484375 C 326.109375 251.25 325.574219 250.964844 325.066406 250.625 C 324.5625 250.289062 324.09375 249.902344 323.664062 249.472656 C 323.234375 249.042969 322.847656 248.574219 322.511719 248.070312 C 322.171875 247.5625 321.886719 247.027344 321.652344 246.464844 C 321.421875 245.902344 321.246094 245.324219 321.125 244.726562 C 321.007812 244.128906 320.949219 243.527344 320.949219 242.917969 L 320.949219 108.324219 C 320.949219 107.714844 321.007812 107.113281 321.125 106.515625 C 321.246094 105.917969 321.421875 105.339844 321.652344 104.777344 C 321.886719 104.214844 322.171875 103.679688 322.511719 103.171875 C 322.847656 102.667969 323.234375 102.199219 323.664062 101.769531 C 324.09375 101.339844 324.5625 100.953125 325.066406 100.617188 C 325.574219 100.277344 326.109375 99.992188 326.671875 99.757812 C 327.234375 99.527344 327.8125 99.351562 328.410156 99.230469 C 329.007812 99.113281 329.609375 99.054688 330.21875 99.054688 Z M 330.21875 99.054688 " fill-opacity="1" fill-rule="nonzero"/></g><g clip-path="url(#7901f2c32d)"><path fill="#890019" d="M 369.246094 129.339844 L 387.785156 129.339844 C 388.394531 129.339844 388.996094 129.402344 389.59375 129.519531 C 390.191406 129.636719 390.769531 129.8125 391.332031 130.046875 C 391.894531 130.28125 392.429688 130.566406 392.933594 130.902344 C 393.441406 131.242188 393.910156 131.625 394.339844 132.054688 C 394.769531 132.488281 395.152344 132.953125 395.492188 133.460938 C 395.832031 133.96875 396.117188 134.5 396.347656 135.0625 C 396.582031 135.625 396.757812 136.207031 396.875 136.800781 C 396.996094 137.398438 397.054688 138 397.054688 138.609375 L 397.054688 242.917969 C 397.054688 243.527344 396.996094 244.128906 396.875 244.726562 C 396.757812 245.324219 396.582031 245.902344 396.347656 246.464844 C 396.117188 247.027344 395.832031 247.5625 395.492188 248.070312 C 395.152344 248.574219 394.769531 249.042969 394.339844 249.472656 C 393.910156 249.902344 393.441406 250.289062 392.933594 250.625 C 392.429688 250.964844 391.894531 251.25 391.332031 251.484375 C 390.769531 251.714844 390.191406 251.890625 389.59375 252.011719 C 388.996094 252.128906 388.394531 252.1875 387.785156 252.1875 L 369.246094 252.1875 C 368.636719 252.1875 368.035156 252.128906 367.4375 252.011719 C 366.839844 251.890625 366.261719 251.714844 365.699219 251.484375 C 365.136719 251.25 364.601562 250.964844 364.097656 250.625 C 363.589844 250.289062 363.121094 249.902344 362.691406 249.472656 C 362.261719 249.042969 361.878906 248.574219 361.539062 248.070312 C 361.199219 247.5625 360.914062 247.027344 360.683594 246.464844 C 360.449219 245.902344 360.273438 245.324219 360.15625 244.726562 C 360.035156 244.128906 359.976562 243.527344 359.976562 242.917969 L 359.976562 138.609375 C 359.976562 138 360.035156 137.398438 360.15625 136.800781 C 360.273438 136.207031 360.449219 135.625 360.683594 135.0625 C 360.914062 134.5 361.199219 133.96875 361.539062 133.460938 C 361.878906 132.953125 362.261719 132.488281 362.691406 132.054688 C 363.121094 131.625 363.589844 131.242188 364.097656 130.902344 C 364.601562 130.566406 365.136719 130.28125 365.699219 130.046875 C 366.261719 129.8125 366.839844 129.636719 367.4375 129.519531 C 368.035156 129.402344 368.636719 129.339844 369.246094 129.339844 Z M 369.246094 129.339844 " fill-opacity="1" fill-rule="nonzero"/></g><g clip-path="url(#cd94bd6f07)"><path fill="#f6a02a" d="M 408.273438 152.058594 L 426.8125 152.058594 C 427.421875 152.058594 428.023438 152.117188 428.621094 152.234375 C 429.21875 152.355469 429.796875 152.53125 430.359375 152.761719 C 430.921875 152.996094 431.457031 153.28125 431.964844 153.617188 C 432.46875 153.957031 432.9375 154.339844 433.367188 154.773438 C 433.796875 155.203125 434.183594 155.671875 434.519531 156.175781 C 434.859375 156.683594 435.144531 157.214844 435.378906 157.777344 C 435.609375 158.339844 435.785156 158.921875 435.90625 159.519531 C 436.023438 160.113281 436.082031 160.71875 436.082031 161.328125 L 436.082031 242.917969 C 436.082031 243.527344 436.023438 244.128906 435.90625 244.726562 C 435.785156 245.324219 435.609375 245.902344 435.378906 246.464844 C 435.144531 247.027344 434.859375 247.5625 434.519531 248.070312 C 434.183594 248.574219 433.796875 249.042969 433.367188 249.472656 C 432.9375 249.902344 432.46875 250.289062 431.964844 250.625 C 431.457031 250.964844 430.921875 251.25 430.359375 251.484375 C 429.796875 251.714844 429.21875 251.890625 428.621094 252.011719 C 428.023438 252.128906 427.421875 252.1875 426.8125 252.1875 L 408.273438 252.1875 C 407.667969 252.1875 407.0625 252.128906 406.46875 252.011719 C 405.871094 251.890625 405.289062 251.714844 404.726562 251.484375 C 404.164062 251.25 403.632812 250.964844 403.125 250.625 C 402.621094 250.289062 402.152344 249.902344 401.722656 249.472656 C 401.289062 249.042969 400.90625 248.574219 400.566406 248.070312 C 400.230469 247.5625 399.945312 247.027344 399.710938 246.464844 C 399.480469 245.902344 399.300781 245.324219 399.183594 244.726562 C 399.066406 244.128906 399.007812 243.527344 399.007812 242.917969 L 399.007812 161.328125 C 399.007812 160.71875 399.066406 160.113281 399.183594 159.519531 C 399.300781 158.921875 399.480469 158.339844 399.710938 157.777344 C 399.945312 157.214844 400.230469 156.683594 400.566406 156.175781 C 400.90625 155.671875 401.289062 155.203125 401.722656 154.773438 C 402.152344 154.339844 402.621094 153.957031 403.125 153.617188 C 403.632812 153.28125 404.164062 152.996094 404.726562 152.761719 C 405.289062 152.53125 405.871094 152.355469 406.46875 152.234375 C 407.0625 152.117188 407.667969 152.058594 408.273438 152.058594 Z M 408.273438 152.058594 " fill-opacity="1" fill-rule="nonzero"/></g><g clip-path="url(#230caca567)"><g clip-path="url(#f81dc067f1)"><path fill="#eb0033" d="M 44.066406 281.878906 L 63.605469 281.878906 L 63.605469 310.957031 L 44.066406 310.957031 Z M 44.066406 281.878906 " fill-opacity="1" fill-rule="nonzero"/></g></g><g fill="#000000" fill-opacity="1"><g transform="translate(68.993513, 300.910333)"><g><path d="M 1.0625 0 L 1.0625 -10.078125 L 4.3125 -10.078125 C 5.101562 -10.078125 5.75 -9.945312 6.25 -9.6875 C 6.75 -9.425781 7.117188 -9.066406 7.359375 -8.609375 C 7.597656 -8.160156 7.71875 -7.664062 7.71875 -7.125 C 7.71875 -6.488281 7.546875 -5.914062 7.203125 -5.40625 C 6.859375 -4.894531 6.328125 -4.535156 5.609375 -4.328125 L 7.8125 0 L 6.390625 0 L 4.34375 -4.15625 L 2.28125 -4.15625 L 2.28125 0 Z M 2.28125 -5.109375 L 4.234375 -5.109375 C 5.003906 -5.109375 5.566406 -5.296875 5.921875 -5.671875 C 6.285156 -6.046875 6.46875 -6.523438 6.46875 -7.109375 C 6.46875 -7.703125 6.289062 -8.171875 5.9375 -8.515625 C 5.582031 -8.867188 5.007812 -9.046875 4.21875 -9.046875 L 2.28125 -9.046875 Z M 2.28125 -5.109375 "/></g></g></g><g fill="#000000" fill-opacity="1"><g transform="translate(77.520966, 300.910333)"><g><path d="M 4.203125 0.171875 C 3.523438 0.171875 2.921875 0.015625 2.390625 -0.296875 C 1.859375 -0.609375 1.441406 -1.039062 1.140625 -1.59375 C 0.835938 -2.15625 0.6875 -2.8125 0.6875 -3.5625 C 0.6875 -4.3125 0.832031 -4.96875 1.125 -5.53125 C 1.425781 -6.09375 1.84375 -6.53125 2.375 -6.84375 C 2.914062 -7.15625 3.535156 -7.3125 4.234375 -7.3125 C 4.921875 -7.3125 5.515625 -7.15625 6.015625 -6.84375 C 6.523438 -6.53125 6.910156 -6.117188 7.171875 -5.609375 C 7.441406 -5.097656 7.578125 -4.550781 7.578125 -3.96875 C 7.578125 -3.863281 7.570312 -3.757812 7.5625 -3.65625 C 7.5625 -3.550781 7.5625 -3.429688 7.5625 -3.296875 L 1.890625 -3.296875 C 1.910156 -2.742188 2.035156 -2.285156 2.265625 -1.921875 C 2.492188 -1.566406 2.773438 -1.296875 3.109375 -1.109375 C 3.453125 -0.929688 3.816406 -0.84375 4.203125 -0.84375 C 4.703125 -0.84375 5.117188 -0.957031 5.453125 -1.1875 C 5.785156 -1.425781 6.03125 -1.738281 6.1875 -2.125 L 7.375 -2.125 C 7.1875 -1.46875 6.820312 -0.921875 6.28125 -0.484375 C 5.738281 -0.046875 5.046875 0.171875 4.203125 0.171875 Z M 4.203125 -6.28125 C 3.628906 -6.28125 3.117188 -6.101562 2.671875 -5.75 C 2.222656 -5.40625 1.96875 -4.898438 1.90625 -4.234375 L 6.390625 -4.234375 C 6.359375 -4.867188 6.132812 -5.367188 5.71875 -5.734375 C 5.3125 -6.097656 4.804688 -6.28125 4.203125 -6.28125 Z M 4.203125 -6.28125 "/></g></g></g><g fill="#000000" fill-opacity="1"><g transform="translate(85.703297, 300.910333)"><g><path d="M 4.28125 0.171875 C 3.59375 0.171875 2.976562 0.015625 2.4375 -0.296875 C 1.894531 -0.609375 1.46875 -1.046875 1.15625 -1.609375 C 0.84375 -2.171875 0.6875 -2.820312 0.6875 -3.5625 C 0.6875 -4.3125 0.84375 -4.96875 1.15625 -5.53125 C 1.46875 -6.09375 1.894531 -6.53125 2.4375 -6.84375 C 2.976562 -7.15625 3.59375 -7.3125 4.28125 -7.3125 C 5.125 -7.3125 5.832031 -7.085938 6.40625 -6.640625 C 6.988281 -6.203125 7.359375 -5.613281 7.515625 -4.875 L 6.28125 -4.875 C 6.175781 -5.320312 5.9375 -5.664062 5.5625 -5.90625 C 5.195312 -6.15625 4.765625 -6.28125 4.265625 -6.28125 C 3.859375 -6.28125 3.476562 -6.175781 3.125 -5.96875 C 2.769531 -5.769531 2.476562 -5.46875 2.25 -5.0625 C 2.03125 -4.664062 1.921875 -4.164062 1.921875 -3.5625 C 1.921875 -2.96875 2.03125 -2.46875 2.25 -2.0625 C 2.476562 -1.664062 2.769531 -1.363281 3.125 -1.15625 C 3.476562 -0.945312 3.859375 -0.84375 4.265625 -0.84375 C 4.765625 -0.84375 5.195312 -0.960938 5.5625 -1.203125 C 5.9375 -1.453125 6.175781 -1.804688 6.28125 -2.265625 L 7.515625 -2.265625 C 7.367188 -1.546875 7.003906 -0.957031 6.421875 -0.5 C 5.835938 -0.0507812 5.125 0.171875 4.28125 0.171875 Z M 4.28125 0.171875 "/></g></g></g><g fill="#000000" fill-opacity="1"><g transform="translate(93.900003, 300.910333)"><g><path d="M 4.203125 0.171875 C 3.523438 0.171875 2.921875 0.015625 2.390625 -0.296875 C 1.859375 -0.609375 1.441406 -1.039062 1.140625 -1.59375 C 0.835938 -2.15625 0.6875 -2.8125 0.6875 -3.5625 C 0.6875 -4.3125 0.832031 -4.96875 1.125 -5.53125 C 1.425781 -6.09375 1.84375 -6.53125 2.375 -6.84375 C 2.914062 -7.15625 3.535156 -7.3125 4.234375 -7.3125 C 4.921875 -7.3125 5.515625 -7.15625 6.015625 -6.84375 C 6.523438 -6.53125 6.910156 -6.117188 7.171875 -5.609375 C 7.441406 -5.097656 7.578125 -4.550781 7.578125 -3.96875 C 7.578125 -3.863281 7.570312 -3.757812 7.5625 -3.65625 C 7.5625 -3.550781 7.5625 -3.429688 7.5625 -3.296875 L 1.890625 -3.296875 C 1.910156 -2.742188 2.035156 -2.285156 2.265625 -1.921875 C 2.492188 -1.566406 2.773438 -1.296875 3.109375 -1.109375 C 3.453125 -0.929688 3.816406 -0.84375 4.203125 -0.84375 C 4.703125 -0.84375 5.117188 -0.957031 5.453125 -1.1875 C 5.785156 -1.425781 6.03125 -1.738281 6.1875 -2.125 L 7.375 -2.125 C 7.1875 -1.46875 6.820312 -0.921875 6.28125 -0.484375 C 5.738281 -0.046875 5.046875 0.171875 4.203125 0.171875 Z M 4.203125 -6.28125 C 3.628906 -6.28125 3.117188 -6.101562 2.671875 -5.75 C 2.222656 -5.40625 1.96875 -4.898438 1.90625 -4.234375 L 6.390625 -4.234375 C 6.359375 -4.867188 6.132812 -5.367188 5.71875 -5.734375 C 5.3125 -6.097656 4.804688 -6.28125 4.203125 -6.28125 Z M 4.203125 -6.28125 "/></g></g></g><g fill="#000000" fill-opacity="1"><g transform="translate(102.082334, 300.910333)"><g><path d="M 1.734375 -8.71875 C 1.484375 -8.71875 1.28125 -8.796875 1.125 -8.953125 C 0.96875 -9.117188 0.890625 -9.320312 0.890625 -9.5625 C 0.890625 -9.789062 0.96875 -9.976562 1.125 -10.125 C 1.28125 -10.28125 1.484375 -10.359375 1.734375 -10.359375 C 1.960938 -10.359375 2.15625 -10.28125 2.3125 -10.125 C 2.476562 -9.976562 2.5625 -9.789062 2.5625 -9.5625 C 2.5625 -9.320312 2.476562 -9.117188 2.3125 -8.953125 C 2.15625 -8.796875 1.960938 -8.71875 1.734375 -8.71875 Z M 1.125 0 L 1.125 -7.140625 L 2.328125 -7.140625 L 2.328125 0 Z M 1.125 0 "/></g></g></g><g fill="#000000" fill-opacity="1"><g transform="translate(105.5192, 300.910333)"><g><path d="M 3.8125 0 C 3.15625 0 2.640625 -0.15625 2.265625 -0.46875 C 1.898438 -0.789062 1.71875 -1.363281 1.71875 -2.1875 L 1.71875 -6.109375 L 0.46875 -6.109375 L 0.46875 -7.140625 L 1.71875 -7.140625 L 1.875 -8.84375 L 2.921875 -8.84375 L 2.921875 -7.140625 L 5.015625 -7.140625 L 5.015625 -6.109375 L 2.921875 -6.109375 L 2.921875 -2.1875 C 2.921875 -1.738281 3.007812 -1.429688 3.1875 -1.265625 C 3.375 -1.109375 3.695312 -1.03125 4.15625 -1.03125 L 4.90625 -1.03125 L 4.90625 0 Z M 3.8125 0 "/></g></g></g><g fill="#000000" fill-opacity="1"><g transform="translate(111.084328, 300.910333)"><g><path d="M 3.375 0.171875 C 2.769531 0.171875 2.269531 0.0703125 1.875 -0.125 C 1.488281 -0.332031 1.195312 -0.601562 1 -0.9375 C 0.8125 -1.269531 0.71875 -1.632812 0.71875 -2.03125 C 0.71875 -2.757812 0.992188 -3.316406 1.546875 -3.703125 C 2.109375 -4.097656 2.867188 -4.296875 3.828125 -4.296875 L 5.75 -4.296875 L 5.75 -4.390625 C 5.75 -5.015625 5.585938 -5.484375 5.265625 -5.796875 C 4.941406 -6.117188 4.503906 -6.28125 3.953125 -6.28125 C 3.484375 -6.28125 3.078125 -6.160156 2.734375 -5.921875 C 2.398438 -5.691406 2.1875 -5.351562 2.09375 -4.90625 L 0.859375 -4.90625 C 0.910156 -5.425781 1.085938 -5.863281 1.390625 -6.21875 C 1.691406 -6.570312 2.066406 -6.84375 2.515625 -7.03125 C 2.960938 -7.21875 3.441406 -7.3125 3.953125 -7.3125 C 4.953125 -7.3125 5.703125 -7.046875 6.203125 -6.515625 C 6.710938 -5.984375 6.96875 -5.273438 6.96875 -4.390625 L 6.96875 0 L 5.890625 0 L 5.8125 -1.28125 C 5.613281 -0.875 5.316406 -0.53125 4.921875 -0.25 C 4.535156 0.03125 4.019531 0.171875 3.375 0.171875 Z M 3.546875 -0.84375 C 4.015625 -0.84375 4.410156 -0.960938 4.734375 -1.203125 C 5.066406 -1.441406 5.316406 -1.753906 5.484375 -2.140625 C 5.660156 -2.523438 5.75 -2.929688 5.75 -3.359375 L 5.75 -3.375 L 3.921875 -3.375 C 3.210938 -3.375 2.710938 -3.25 2.421875 -3 C 2.128906 -2.757812 1.984375 -2.457031 1.984375 -2.09375 C 1.984375 -1.71875 2.117188 -1.414062 2.390625 -1.1875 C 2.671875 -0.957031 3.054688 -0.84375 3.546875 -0.84375 Z M 3.546875 -0.84375 "/></g></g></g><g clip-path="url(#97fb3386ad)"><g clip-path="url(#00ef0fdbf8)"><path fill="#890019" d="M 182.753906 281.878906 L 202.292969 281.878906 L 202.292969 310.957031 L 182.753906 310.957031 Z M 182.753906 281.878906 " fill-opacity="1" fill-rule="nonzero"/></g></g><g fill="#000000" fill-opacity="1"><g transform="translate(207.540845, 300.910333)"><g><path d="M 1.0625 0 L 1.0625 -10.078125 L 4.15625 -10.078125 C 5.9375 -10.078125 7.242188 -9.625 8.078125 -8.71875 C 8.921875 -7.820312 9.34375 -6.585938 9.34375 -5.015625 C 9.34375 -3.460938 8.921875 -2.238281 8.078125 -1.34375 C 7.242188 -0.445312 5.9375 0 4.15625 0 Z M 2.28125 -1 L 4.125 -1 C 5.101562 -1 5.882812 -1.160156 6.46875 -1.484375 C 7.050781 -1.804688 7.46875 -2.265625 7.71875 -2.859375 C 7.96875 -3.460938 8.09375 -4.179688 8.09375 -5.015625 C 8.09375 -5.859375 7.96875 -6.582031 7.71875 -7.1875 C 7.46875 -7.789062 7.050781 -8.253906 6.46875 -8.578125 C 5.882812 -8.898438 5.101562 -9.0625 4.125 -9.0625 L 2.28125 -9.0625 Z M 2.28125 -1 "/></g></g></g><g fill="#000000" fill-opacity="1"><g transform="translate(217.549454, 300.910333)"><g><path d="M 4.203125 0.171875 C 3.523438 0.171875 2.921875 0.015625 2.390625 -0.296875 C 1.859375 -0.609375 1.441406 -1.039062 1.140625 -1.59375 C 0.835938 -2.15625 0.6875 -2.8125 0.6875 -3.5625 C 0.6875 -4.3125 0.832031 -4.96875 1.125 -5.53125 C 1.425781 -6.09375 1.84375 -6.53125 2.375 -6.84375 C 2.914062 -7.15625 3.535156 -7.3125 4.234375 -7.3125 C 4.921875 -7.3125 5.515625 -7.15625 6.015625 -6.84375 C 6.523438 -6.53125 6.910156 -6.117188 7.171875 -5.609375 C 7.441406 -5.097656 7.578125 -4.550781 7.578125 -3.96875 C 7.578125 -3.863281 7.570312 -3.757812 7.5625 -3.65625 C 7.5625 -3.550781 7.5625 -3.429688 7.5625 -3.296875 L 1.890625 -3.296875 C 1.910156 -2.742188 2.035156 -2.285156 2.265625 -1.921875 C 2.492188 -1.566406 2.773438 -1.296875 3.109375 -1.109375 C 3.453125 -0.929688 3.816406 -0.84375 4.203125 -0.84375 C 4.703125 -0.84375 5.117188 -0.957031 5.453125 -1.1875 C 5.785156 -1.425781 6.03125 -1.738281 6.1875 -2.125 L 7.375 -2.125 C 7.1875 -1.46875 6.820312 -0.921875 6.28125 -0.484375 C 5.738281 -0.046875 5.046875 0.171875 4.203125 0.171875 Z M 4.203125 -6.28125 C 3.628906 -6.28125 3.117188 -6.101562 2.671875 -5.75 C 2.222656 -5.40625 1.96875 -4.898438 1.90625 -4.234375 L 6.390625 -4.234375 C 6.359375 -4.867188 6.132812 -5.367188 5.71875 -5.734375 C 5.3125 -6.097656 4.804688 -6.28125 4.203125 -6.28125 Z M 4.203125 -6.28125 "/></g></g></g><g fill="#000000" fill-opacity="1"><g transform="translate(225.731785, 300.910333)"><g><path d="M 3.734375 0.171875 C 2.878906 0.171875 2.164062 -0.0390625 1.59375 -0.46875 C 1.03125 -0.90625 0.703125 -1.492188 0.609375 -2.234375 L 1.84375 -2.234375 C 1.914062 -1.859375 2.113281 -1.53125 2.4375 -1.25 C 2.757812 -0.976562 3.191406 -0.84375 3.734375 -0.84375 C 4.242188 -0.84375 4.617188 -0.953125 4.859375 -1.171875 C 5.097656 -1.390625 5.21875 -1.644531 5.21875 -1.9375 C 5.21875 -2.375 5.0625 -2.660156 4.75 -2.796875 C 4.4375 -2.941406 4 -3.070312 3.4375 -3.1875 C 3.050781 -3.269531 2.664062 -3.378906 2.28125 -3.515625 C 1.90625 -3.660156 1.585938 -3.863281 1.328125 -4.125 C 1.066406 -4.394531 0.9375 -4.75 0.9375 -5.1875 C 0.9375 -5.800781 1.164062 -6.304688 1.625 -6.703125 C 2.09375 -7.109375 2.726562 -7.3125 3.53125 -7.3125 C 4.28125 -7.3125 4.894531 -7.117188 5.375 -6.734375 C 5.863281 -6.359375 6.148438 -5.820312 6.234375 -5.125 L 5.03125 -5.125 C 4.988281 -5.488281 4.832031 -5.769531 4.5625 -5.96875 C 4.300781 -6.175781 3.953125 -6.28125 3.515625 -6.28125 C 3.078125 -6.28125 2.738281 -6.1875 2.5 -6 C 2.269531 -5.820312 2.15625 -5.585938 2.15625 -5.296875 C 2.15625 -5.003906 2.304688 -4.773438 2.609375 -4.609375 C 2.910156 -4.453125 3.320312 -4.316406 3.84375 -4.203125 C 4.28125 -4.109375 4.695312 -3.988281 5.09375 -3.84375 C 5.5 -3.707031 5.828125 -3.503906 6.078125 -3.234375 C 6.335938 -2.960938 6.46875 -2.566406 6.46875 -2.046875 C 6.46875 -1.398438 6.222656 -0.867188 5.734375 -0.453125 C 5.242188 -0.0351562 4.578125 0.171875 3.734375 0.171875 Z M 3.734375 0.171875 "/></g></g></g><g fill="#000000" fill-opacity="1"><g transform="translate(232.921876, 300.910333)"><g><path d="M 1 3.171875 L 1 -7.140625 L 2.09375 -7.140625 L 2.203125 -5.953125 C 2.429688 -6.296875 2.757812 -6.609375 3.1875 -6.890625 C 3.613281 -7.171875 4.160156 -7.3125 4.828125 -7.3125 C 5.535156 -7.3125 6.148438 -7.144531 6.671875 -6.8125 C 7.203125 -6.488281 7.613281 -6.046875 7.90625 -5.484375 C 8.195312 -4.921875 8.34375 -4.273438 8.34375 -3.546875 C 8.34375 -2.828125 8.195312 -2.1875 7.90625 -1.625 C 7.613281 -1.070312 7.203125 -0.632812 6.671875 -0.3125 C 6.140625 0.0078125 5.519531 0.171875 4.8125 0.171875 C 4.21875 0.171875 3.691406 0.0507812 3.234375 -0.1875 C 2.785156 -0.425781 2.441406 -0.757812 2.203125 -1.1875 L 2.203125 3.171875 Z M 4.671875 -0.875 C 5.148438 -0.875 5.570312 -0.984375 5.9375 -1.203125 C 6.300781 -1.429688 6.585938 -1.75 6.796875 -2.15625 C 7.015625 -2.5625 7.125 -3.03125 7.125 -3.5625 C 7.125 -4.101562 7.015625 -4.570312 6.796875 -4.96875 C 6.585938 -5.375 6.300781 -5.691406 5.9375 -5.921875 C 5.570312 -6.148438 5.148438 -6.265625 4.671875 -6.265625 C 4.191406 -6.265625 3.769531 -6.148438 3.40625 -5.921875 C 3.039062 -5.691406 2.753906 -5.375 2.546875 -4.96875 C 2.335938 -4.570312 2.234375 -4.101562 2.234375 -3.5625 C 2.234375 -3.03125 2.335938 -2.5625 2.546875 -2.15625 C 2.753906 -1.75 3.039062 -1.429688 3.40625 -1.203125 C 3.769531 -0.984375 4.191406 -0.875 4.671875 -0.875 Z M 4.671875 -0.875 "/></g></g></g><g fill="#000000" fill-opacity="1"><g transform="translate(241.952631, 300.910333)"><g><path d="M 4.203125 0.171875 C 3.523438 0.171875 2.921875 0.015625 2.390625 -0.296875 C 1.859375 -0.609375 1.441406 -1.039062 1.140625 -1.59375 C 0.835938 -2.15625 0.6875 -2.8125 0.6875 -3.5625 C 0.6875 -4.3125 0.832031 -4.96875 1.125 -5.53125 C 1.425781 -6.09375 1.84375 -6.53125 2.375 -6.84375 C 2.914062 -7.15625 3.535156 -7.3125 4.234375 -7.3125 C 4.921875 -7.3125 5.515625 -7.15625 6.015625 -6.84375 C 6.523438 -6.53125 6.910156 -6.117188 7.171875 -5.609375 C 7.441406 -5.097656 7.578125 -4.550781 7.578125 -3.96875 C 7.578125 -3.863281 7.570312 -3.757812 7.5625 -3.65625 C 7.5625 -3.550781 7.5625 -3.429688 7.5625 -3.296875 L 1.890625 -3.296875 C 1.910156 -2.742188 2.035156 -2.285156 2.265625 -1.921875 C 2.492188 -1.566406 2.773438 -1.296875 3.109375 -1.109375 C 3.453125 -0.929688 3.816406 -0.84375 4.203125 -0.84375 C 4.703125 -0.84375 5.117188 -0.957031 5.453125 -1.1875 C 5.785156 -1.425781 6.03125 -1.738281 6.1875 -2.125 L 7.375 -2.125 C 7.1875 -1.46875 6.820312 -0.921875 6.28125 -0.484375 C 5.738281 -0.046875 5.046875 0.171875 4.203125 0.171875 Z M 4.203125 -6.28125 C 3.628906 -6.28125 3.117188 -6.101562 2.671875 -5.75 C 2.222656 -5.40625 1.96875 -4.898438 1.90625 -4.234375 L 6.390625 -4.234375 C 6.359375 -4.867188 6.132812 -5.367188 5.71875 -5.734375 C 5.3125 -6.097656 4.804688 -6.28125 4.203125 -6.28125 Z M 4.203125 -6.28125 "/></g></g></g><g fill="#000000" fill-opacity="1"><g transform="translate(250.134962, 300.910333)"><g><path d="M 3.734375 0.171875 C 2.878906 0.171875 2.164062 -0.0390625 1.59375 -0.46875 C 1.03125 -0.90625 0.703125 -1.492188 0.609375 -2.234375 L 1.84375 -2.234375 C 1.914062 -1.859375 2.113281 -1.53125 2.4375 -1.25 C 2.757812 -0.976562 3.191406 -0.84375 3.734375 -0.84375 C 4.242188 -0.84375 4.617188 -0.953125 4.859375 -1.171875 C 5.097656 -1.390625 5.21875 -1.644531 5.21875 -1.9375 C 5.21875 -2.375 5.0625 -2.660156 4.75 -2.796875 C 4.4375 -2.941406 4 -3.070312 3.4375 -3.1875 C 3.050781 -3.269531 2.664062 -3.378906 2.28125 -3.515625 C 1.90625 -3.660156 1.585938 -3.863281 1.328125 -4.125 C 1.066406 -4.394531 0.9375 -4.75 0.9375 -5.1875 C 0.9375 -5.800781 1.164062 -6.304688 1.625 -6.703125 C 2.09375 -7.109375 2.726562 -7.3125 3.53125 -7.3125 C 4.28125 -7.3125 4.894531 -7.117188 5.375 -6.734375 C 5.863281 -6.359375 6.148438 -5.820312 6.234375 -5.125 L 5.03125 -5.125 C 4.988281 -5.488281 4.832031 -5.769531 4.5625 -5.96875 C 4.300781 -6.175781 3.953125 -6.28125 3.515625 -6.28125 C 3.078125 -6.28125 2.738281 -6.1875 2.5 -6 C 2.269531 -5.820312 2.15625 -5.585938 2.15625 -5.296875 C 2.15625 -5.003906 2.304688 -4.773438 2.609375 -4.609375 C 2.910156 -4.453125 3.320312 -4.316406 3.84375 -4.203125 C 4.28125 -4.109375 4.695312 -3.988281 5.09375 -3.84375 C 5.5 -3.707031 5.828125 -3.503906 6.078125 -3.234375 C 6.335938 -2.960938 6.46875 -2.566406 6.46875 -2.046875 C 6.46875 -1.398438 6.222656 -0.867188 5.734375 -0.453125 C 5.242188 -0.0351562 4.578125 0.171875 3.734375 0.171875 Z M 3.734375 0.171875 "/></g></g></g><g fill="#000000" fill-opacity="1"><g transform="translate(257.325053, 300.910333)"><g><path d="M 3.375 0.171875 C 2.769531 0.171875 2.269531 0.0703125 1.875 -0.125 C 1.488281 -0.332031 1.195312 -0.601562 1 -0.9375 C 0.8125 -1.269531 0.71875 -1.632812 0.71875 -2.03125 C 0.71875 -2.757812 0.992188 -3.316406 1.546875 -3.703125 C 2.109375 -4.097656 2.867188 -4.296875 3.828125 -4.296875 L 5.75 -4.296875 L 5.75 -4.390625 C 5.75 -5.015625 5.585938 -5.484375 5.265625 -5.796875 C 4.941406 -6.117188 4.503906 -6.28125 3.953125 -6.28125 C 3.484375 -6.28125 3.078125 -6.160156 2.734375 -5.921875 C 2.398438 -5.691406 2.1875 -5.351562 2.09375 -4.90625 L 0.859375 -4.90625 C 0.910156 -5.425781 1.085938 -5.863281 1.390625 -6.21875 C 1.691406 -6.570312 2.066406 -6.84375 2.515625 -7.03125 C 2.960938 -7.21875 3.441406 -7.3125 3.953125 -7.3125 C 4.953125 -7.3125 5.703125 -7.046875 6.203125 -6.515625 C 6.710938 -5.984375 6.96875 -5.273438 6.96875 -4.390625 L 6.96875 0 L 5.890625 0 L 5.8125 -1.28125 C 5.613281 -0.875 5.316406 -0.53125 4.921875 -0.25 C 4.535156 0.03125 4.019531 0.171875 3.375 0.171875 Z M 3.546875 -0.84375 C 4.015625 -0.84375 4.410156 -0.960938 4.734375 -1.203125 C 5.066406 -1.441406 5.316406 -1.753906 5.484375 -2.140625 C 5.660156 -2.523438 5.75 -2.929688 5.75 -3.359375 L 5.75 -3.375 L 3.921875 -3.375 C 3.210938 -3.375 2.710938 -3.25 2.421875 -3 C 2.128906 -2.757812 1.984375 -2.457031 1.984375 -2.09375 C 1.984375 -1.71875 2.117188 -1.414062 2.390625 -1.1875 C 2.671875 -0.957031 3.054688 -0.84375 3.546875 -0.84375 Z M 3.546875 -0.84375 "/></g></g></g><g fill="#000000" fill-opacity="1"><g transform="translate(265.10474, 300.910333)"><g><path d="M 3.734375 0.171875 C 2.878906 0.171875 2.164062 -0.0390625 1.59375 -0.46875 C 1.03125 -0.90625 0.703125 -1.492188 0.609375 -2.234375 L 1.84375 -2.234375 C 1.914062 -1.859375 2.113281 -1.53125 2.4375 -1.25 C 2.757812 -0.976562 3.191406 -0.84375 3.734375 -0.84375 C 4.242188 -0.84375 4.617188 -0.953125 4.859375 -1.171875 C 5.097656 -1.390625 5.21875 -1.644531 5.21875 -1.9375 C 5.21875 -2.375 5.0625 -2.660156 4.75 -2.796875 C 4.4375 -2.941406 4 -3.070312 3.4375 -3.1875 C 3.050781 -3.269531 2.664062 -3.378906 2.28125 -3.515625 C 1.90625 -3.660156 1.585938 -3.863281 1.328125 -4.125 C 1.066406 -4.394531 0.9375 -4.75 0.9375 -5.1875 C 0.9375 -5.800781 1.164062 -6.304688 1.625 -6.703125 C 2.09375 -7.109375 2.726562 -7.3125 3.53125 -7.3125 C 4.28125 -7.3125 4.894531 -7.117188 5.375 -6.734375 C 5.863281 -6.359375 6.148438 -5.820312 6.234375 -5.125 L 5.03125 -5.125 C 4.988281 -5.488281 4.832031 -5.769531 4.5625 -5.96875 C 4.300781 -6.175781 3.953125 -6.28125 3.515625 -6.28125 C 3.078125 -6.28125 2.738281 -6.1875 2.5 -6 C 2.269531 -5.820312 2.15625 -5.585938 2.15625 -5.296875 C 2.15625 -5.003906 2.304688 -4.773438 2.609375 -4.609375 C 2.910156 -4.453125 3.320312 -4.316406 3.84375 -4.203125 C 4.28125 -4.109375 4.695312 -3.988281 5.09375 -3.84375 C 5.5 -3.707031 5.828125 -3.503906 6.078125 -3.234375 C 6.335938 -2.960938 6.46875 -2.566406 6.46875 -2.046875 C 6.46875 -1.398438 6.222656 -0.867188 5.734375 -0.453125 C 5.242188 -0.0351562 4.578125 0.171875 3.734375 0.171875 Z M 3.734375 0.171875 "/></g></g></g><g clip-path="url(#3b3ba85616)"><g clip-path="url(#634f9892ec)"><path fill="#f6a02a" d="M 321.441406 281.878906 L 340.980469 281.878906 L 340.980469 310.957031 L 321.441406 310.957031 Z M 321.441406 281.878906 " fill-opacity="1" fill-rule="nonzero"/></g></g><g fill="#000000" fill-opacity="1"><g transform="translate(346.228202, 300.910566)"><g><path d="M 3.421875 0 L 3.421875 -9.078125 L 0.421875 -9.078125 L 0.421875 -10.078125 L 7.640625 -10.078125 L 7.640625 -9.078125 L 4.640625 -9.078125 L 4.640625 0 Z M 3.421875 0 "/></g></g></g><g fill="#000000" fill-opacity="1"><g transform="translate(354.281114, 300.910566)"><g><path d="M 3.375 0.171875 C 2.769531 0.171875 2.269531 0.0703125 1.875 -0.125 C 1.488281 -0.332031 1.195312 -0.601562 1 -0.9375 C 0.8125 -1.269531 0.71875 -1.632812 0.71875 -2.03125 C 0.71875 -2.757812 0.992188 -3.316406 1.546875 -3.703125 C 2.109375 -4.097656 2.867188 -4.296875 3.828125 -4.296875 L 5.75 -4.296875 L 5.75 -4.390625 C 5.75 -5.015625 5.585938 -5.484375 5.265625 -5.796875 C 4.941406 -6.117188 4.503906 -6.28125 3.953125 -6.28125 C 3.484375 -6.28125 3.078125 -6.160156 2.734375 -5.921875 C 2.398438 -5.691406 2.1875 -5.351562 2.09375 -4.90625 L 0.859375 -4.90625 C 0.910156 -5.425781 1.085938 -5.863281 1.390625 -6.21875 C 1.691406 -6.570312 2.066406 -6.84375 2.515625 -7.03125 C 2.960938 -7.21875 3.441406 -7.3125 3.953125 -7.3125 C 4.953125 -7.3125 5.703125 -7.046875 6.203125 -6.515625 C 6.710938 -5.984375 6.96875 -5.273438 6.96875 -4.390625 L 6.96875 0 L 5.890625 0 L 5.8125 -1.28125 C 5.613281 -0.875 5.316406 -0.53125 4.921875 -0.25 C 4.535156 0.03125 4.019531 0.171875 3.375 0.171875 Z M 3.546875 -0.84375 C 4.015625 -0.84375 4.410156 -0.960938 4.734375 -1.203125 C 5.066406 -1.441406 5.316406 -1.753906 5.484375 -2.140625 C 5.660156 -2.523438 5.75 -2.929688 5.75 -3.359375 L 5.75 -3.375 L 3.921875 -3.375 C 3.210938 -3.375 2.710938 -3.25 2.421875 -3 C 2.128906 -2.757812 1.984375 -2.457031 1.984375 -2.09375 C 1.984375 -1.71875 2.117188 -1.414062 2.390625 -1.1875 C 2.671875 -0.957031 3.054688 -0.84375 3.546875 -0.84375 Z M 3.546875 -0.84375 "/></g></g></g><g fill="#000000" fill-opacity="1"><g transform="translate(362.060801, 300.910566)"><g><path d="M 0.265625 0 L 2.75 -3.5625 L 0.265625 -7.140625 L 1.578125 -7.140625 L 3.578125 -4.1875 L 5.59375 -7.140625 L 6.890625 -7.140625 L 4.421875 -3.5625 L 6.890625 0 L 5.59375 0 L 3.578125 -2.953125 L 1.578125 0 Z M 0.265625 0 "/></g></g></g><g fill="#000000" fill-opacity="1"><g transform="translate(369.222131, 300.910566)"><g><path d="M 3.375 0.171875 C 2.769531 0.171875 2.269531 0.0703125 1.875 -0.125 C 1.488281 -0.332031 1.195312 -0.601562 1 -0.9375 C 0.8125 -1.269531 0.71875 -1.632812 0.71875 -2.03125 C 0.71875 -2.757812 0.992188 -3.316406 1.546875 -3.703125 C 2.109375 -4.097656 2.867188 -4.296875 3.828125 -4.296875 L 5.75 -4.296875 L 5.75 -4.390625 C 5.75 -5.015625 5.585938 -5.484375 5.265625 -5.796875 C 4.941406 -6.117188 4.503906 -6.28125 3.953125 -6.28125 C 3.484375 -6.28125 3.078125 -6.160156 2.734375 -5.921875 C 2.398438 -5.691406 2.1875 -5.351562 2.09375 -4.90625 L 0.859375 -4.90625 C 0.910156 -5.425781 1.085938 -5.863281 1.390625 -6.21875 C 1.691406 -6.570312 2.066406 -6.84375 2.515625 -7.03125 C 2.960938 -7.21875 3.441406 -7.3125 3.953125 -7.3125 C 4.953125 -7.3125 5.703125 -7.046875 6.203125 -6.515625 C 6.710938 -5.984375 6.96875 -5.273438 6.96875 -4.390625 L 6.96875 0 L 5.890625 0 L 5.8125 -1.28125 C 5.613281 -0.875 5.316406 -0.53125 4.921875 -0.25 C 4.535156 0.03125 4.019531 0.171875 3.375 0.171875 Z M 3.546875 -0.84375 C 4.015625 -0.84375 4.410156 -0.960938 4.734375 -1.203125 C 5.066406 -1.441406 5.316406 -1.753906 5.484375 -2.140625 C 5.660156 -2.523438 5.75 -2.929688 5.75 -3.359375 L 5.75 -3.375 L 3.921875 -3.375 C 3.210938 -3.375 2.710938 -3.25 2.421875 -3 C 2.128906 -2.757812 1.984375 -2.457031 1.984375 -2.09375 C 1.984375 -1.71875 2.117188 -1.414062 2.390625 -1.1875 C 2.671875 -0.957031 3.054688 -0.84375 3.546875 -0.84375 Z M 3.546875 -0.84375 "/></g></g></g><g fill="#890019" fill-opacity="1"><g transform="translate(97.953107, 58.192828)"><g><path d="M 2.125 0 C 1.882812 0 1.765625 -0.117188 1.765625 -0.359375 L 1.765625 -17.890625 C 1.765625 -18.128906 1.882812 -18.25 2.125 -18.25 L 8.765625 -18.25 C 10.785156 -18.25 12.332031 -17.804688 13.40625 -16.921875 C 14.488281 -16.046875 15.03125 -14.851562 15.03125 -13.34375 C 15.03125 -12.476562 14.785156 -11.71875 14.296875 -11.0625 C 13.804688 -10.40625 13.132812 -9.898438 12.28125 -9.546875 C 13.351562 -9.234375 14.1875 -8.6875 14.78125 -7.90625 C 15.375 -7.132812 15.671875 -6.21875 15.671875 -5.15625 C 15.671875 -4.113281 15.40625 -3.203125 14.875 -2.421875 C 14.351562 -1.648438 13.59375 -1.050781 12.59375 -0.625 C 11.59375 -0.207031 10.382812 0 8.96875 0 Z M 8.765625 -10.796875 C 9.554688 -10.796875 10.179688 -11.003906 10.640625 -11.421875 C 11.109375 -11.835938 11.34375 -12.359375 11.34375 -12.984375 C 11.34375 -13.628906 11.125 -14.132812 10.6875 -14.5 C 10.25 -14.875 9.609375 -15.0625 8.765625 -15.0625 L 5.375 -15.0625 L 5.375 -10.796875 Z M 8.96875 -3.1875 C 9.925781 -3.1875 10.65625 -3.382812 11.15625 -3.78125 C 11.65625 -4.175781 11.90625 -4.71875 11.90625 -5.40625 C 11.90625 -6.09375 11.65625 -6.632812 11.15625 -7.03125 C 10.65625 -7.425781 9.925781 -7.625 8.96875 -7.625 L 5.375 -7.625 L 5.375 -3.1875 Z M 8.96875 -3.1875 "/></g></g></g><g fill="#890019" fill-opacity="1"><g transform="translate(114.32271, 58.192828)"><g><path d="M 4.171875 -0.28125 C 4.085938 -0.09375 3.953125 0 3.765625 0 L 0.765625 0 C 0.628906 0 0.535156 -0.0351562 0.484375 -0.109375 C 0.429688 -0.191406 0.429688 -0.289062 0.484375 -0.40625 L 7.328125 -17.96875 C 7.410156 -18.15625 7.546875 -18.25 7.734375 -18.25 L 10.96875 -18.25 C 11.15625 -18.25 11.289062 -18.15625 11.375 -17.96875 L 18.25 -0.40625 C 18.257812 -0.375 18.265625 -0.320312 18.265625 -0.25 C 18.265625 -0.0820312 18.164062 0 17.96875 0 L 14.703125 0 C 14.515625 0 14.378906 -0.09375 14.296875 -0.28125 L 13.015625 -3.765625 L 5.4375 -3.765625 Z M 9.21875 -14.125 L 6.640625 -7.09375 L 11.828125 -7.09375 Z M 9.21875 -14.125 "/></g></g></g><g fill="#890019" fill-opacity="1"><g transform="translate(133.041654, 58.192828)"><g><path d="M 14.359375 -0.359375 C 14.359375 -0.117188 14.238281 0 14 0 L 2.125 0 C 1.882812 0 1.765625 -0.117188 1.765625 -0.359375 L 1.765625 -17.890625 C 1.765625 -18.128906 1.882812 -18.25 2.125 -18.25 L 5.078125 -18.25 C 5.316406 -18.25 5.4375 -18.128906 5.4375 -17.890625 L 5.4375 -3.4375 L 14 -3.4375 C 14.238281 -3.4375 14.359375 -3.316406 14.359375 -3.078125 Z M 14.359375 -0.359375 "/></g></g></g><g fill="#890019" fill-opacity="1"><g transform="translate(148.299741, 58.192828)"><g><path d="M 4.171875 -0.28125 C 4.085938 -0.09375 3.953125 0 3.765625 0 L 0.765625 0 C 0.628906 0 0.535156 -0.0351562 0.484375 -0.109375 C 0.429688 -0.191406 0.429688 -0.289062 0.484375 -0.40625 L 7.328125 -17.96875 C 7.410156 -18.15625 7.546875 -18.25 7.734375 -18.25 L 10.96875 -18.25 C 11.15625 -18.25 11.289062 -18.15625 11.375 -17.96875 L 18.25 -0.40625 C 18.257812 -0.375 18.265625 -0.320312 18.265625 -0.25 C 18.265625 -0.0820312 18.164062 0 17.96875 0 L 14.703125 0 C 14.515625 0 14.378906 -0.09375 14.296875 -0.28125 L 13.015625 -3.765625 L 5.4375 -3.765625 Z M 9.21875 -14.125 L 6.640625 -7.09375 L 11.828125 -7.09375 Z M 9.21875 -14.125 "/></g></g></g><g fill="#890019" fill-opacity="1"><g transform="translate(167.018685, 58.192828)"><g><path d="M 5.3125 -0.359375 C 5.3125 -0.117188 5.191406 0 4.953125 0 L 2.125 0 C 1.882812 0 1.765625 -0.117188 1.765625 -0.359375 L 1.765625 -17.890625 C 1.765625 -18.128906 1.882812 -18.25 2.125 -18.25 L 4.71875 -18.25 C 4.90625 -18.25 5.050781 -18.171875 5.15625 -18.015625 L 13.546875 -6.34375 L 13.546875 -17.890625 C 13.546875 -18.128906 13.660156 -18.25 13.890625 -18.25 L 16.734375 -18.25 C 16.960938 -18.25 17.078125 -18.128906 17.078125 -17.890625 L 17.078125 -0.359375 C 17.078125 -0.117188 16.960938 0 16.734375 0 L 14.125 0 C 13.9375 0 13.796875 -0.078125 13.703125 -0.234375 L 5.3125 -11.90625 Z M 5.3125 -0.359375 "/></g></g></g><g fill="#890019" fill-opacity="1"><g transform="translate(185.838676, 58.192828)"><g><path d="M 13.515625 -5.703125 C 13.617188 -5.910156 13.78125 -5.972656 14 -5.890625 L 16.53125 -4.953125 C 16.625 -4.921875 16.6875 -4.863281 16.71875 -4.78125 C 16.757812 -4.695312 16.765625 -4.601562 16.734375 -4.5 C 16.171875 -3.101562 15.34375 -1.984375 14.25 -1.140625 C 13.15625 -0.296875 11.828125 0.179688 10.265625 0.296875 L 10.078125 1.109375 C 10.785156 1.222656 11.332031 1.460938 11.71875 1.828125 C 12.113281 2.191406 12.3125 2.648438 12.3125 3.203125 C 12.3125 3.910156 12.003906 4.515625 11.390625 5.015625 C 10.773438 5.515625 9.875 5.765625 8.6875 5.765625 C 7.78125 5.765625 7.023438 5.628906 6.421875 5.359375 C 6.210938 5.253906 6.148438 5.09375 6.234375 4.875 L 6.75 3.71875 C 6.832031 3.5625 6.925781 3.484375 7.03125 3.484375 L 7.234375 3.53125 C 7.679688 3.707031 8.066406 3.796875 8.390625 3.796875 C 8.722656 3.796875 8.972656 3.726562 9.140625 3.59375 C 9.316406 3.46875 9.40625 3.316406 9.40625 3.140625 C 9.40625 2.816406 9.109375 2.617188 8.515625 2.546875 L 8.09375 2.5 C 7.832031 2.46875 7.726562 2.332031 7.78125 2.09375 L 8.15625 0.234375 C 6.757812 0.0234375 5.515625 -0.5 4.421875 -1.34375 C 3.328125 -2.195312 2.472656 -3.289062 1.859375 -4.625 C 1.242188 -5.96875 0.9375 -7.46875 0.9375 -9.125 C 0.9375 -10.925781 1.300781 -12.539062 2.03125 -13.96875 C 2.769531 -15.40625 3.785156 -16.53125 5.078125 -17.34375 C 6.378906 -18.164062 7.84375 -18.578125 9.46875 -18.578125 C 11.238281 -18.578125 12.703125 -18.175781 13.859375 -17.375 C 15.015625 -16.570312 15.894531 -15.503906 16.5 -14.171875 C 16.519531 -14.140625 16.53125 -14.09375 16.53125 -14.03125 C 16.53125 -13.894531 16.453125 -13.785156 16.296875 -13.703125 L 13.828125 -12.609375 C 13.753906 -12.578125 13.691406 -12.5625 13.640625 -12.5625 C 13.523438 -12.5625 13.425781 -12.632812 13.34375 -12.78125 C 12.519531 -14.363281 11.226562 -15.15625 9.46875 -15.15625 C 8.59375 -15.15625 7.796875 -14.910156 7.078125 -14.421875 C 6.367188 -13.941406 5.804688 -13.242188 5.390625 -12.328125 C 4.984375 -11.421875 4.78125 -10.367188 4.78125 -9.171875 C 4.78125 -7.941406 4.988281 -6.863281 5.40625 -5.9375 C 5.832031 -5.007812 6.40625 -4.300781 7.125 -3.8125 C 7.851562 -3.320312 8.644531 -3.078125 9.5 -3.078125 C 11.375 -3.078125 12.710938 -3.953125 13.515625 -5.703125 Z M 13.515625 -5.703125 "/></g></g></g><g fill="#890019" fill-opacity="1"><g transform="translate(202.940869, 58.192828)"><g><path d="M 9.546875 0.328125 C 7.878906 0.328125 6.390625 -0.078125 5.078125 -0.890625 C 3.765625 -1.710938 2.742188 -2.84375 2.015625 -4.28125 C 1.296875 -5.71875 0.9375 -7.332031 0.9375 -9.125 C 0.9375 -10.90625 1.300781 -12.507812 2.03125 -13.9375 C 2.769531 -15.375 3.796875 -16.503906 5.109375 -17.328125 C 6.421875 -18.160156 7.898438 -18.578125 9.546875 -18.578125 C 11.210938 -18.578125 12.703125 -18.164062 14.015625 -17.34375 C 15.335938 -16.53125 16.363281 -15.398438 17.09375 -13.953125 C 17.820312 -12.515625 18.1875 -10.90625 18.1875 -9.125 C 18.1875 -7.332031 17.820312 -5.71875 17.09375 -4.28125 C 16.363281 -2.851562 15.335938 -1.726562 14.015625 -0.90625 C 12.703125 -0.0820312 11.210938 0.328125 9.546875 0.328125 Z M 9.546875 -3.078125 C 10.492188 -3.078125 11.332031 -3.328125 12.0625 -3.828125 C 12.800781 -4.328125 13.367188 -5.03125 13.765625 -5.9375 C 14.160156 -6.84375 14.359375 -7.890625 14.359375 -9.078125 C 14.359375 -10.304688 14.148438 -11.378906 13.734375 -12.296875 C 13.316406 -13.210938 12.742188 -13.914062 12.015625 -14.40625 C 11.285156 -14.90625 10.460938 -15.15625 9.546875 -15.15625 C 8.609375 -15.15625 7.773438 -14.90625 7.046875 -14.40625 C 6.328125 -13.914062 5.769531 -13.210938 5.375 -12.296875 C 4.976562 -11.390625 4.78125 -10.347656 4.78125 -9.171875 C 4.78125 -7.941406 4.984375 -6.867188 5.390625 -5.953125 C 5.804688 -5.035156 6.375 -4.328125 7.09375 -3.828125 C 7.820312 -3.328125 8.640625 -3.078125 9.546875 -3.078125 Z M 9.546875 -3.078125 "/></g></g></g><g fill="#890019" fill-opacity="1"><g transform="translate(222.038739, 58.192828)"><g/></g></g><g fill="#890019" fill-opacity="1"><g transform="translate(228.152078, 58.192828)"><g><path d="M 5.359375 -0.359375 C 5.359375 -0.117188 5.238281 0 5 0 L 2.125 0 C 1.882812 0 1.765625 -0.117188 1.765625 -0.359375 L 1.765625 -17.890625 C 1.765625 -18.128906 1.882812 -18.25 2.125 -18.25 L 13.828125 -18.25 C 14.054688 -18.25 14.171875 -18.128906 14.171875 -17.890625 L 14.171875 -15.1875 C 14.171875 -14.945312 14.054688 -14.828125 13.828125 -14.828125 L 5.359375 -14.828125 L 5.359375 -10.15625 L 12.6875 -10.15625 C 12.914062 -10.15625 13.03125 -10.035156 13.03125 -9.796875 L 13.03125 -7.09375 C 13.03125 -6.863281 12.914062 -6.75 12.6875 -6.75 L 5.359375 -6.75 Z M 5.359375 -0.359375 "/></g></g></g><g fill="#890019" fill-opacity="1"><g transform="translate(243.208071, 58.192828)"><g><path d="M 5.4375 -0.359375 C 5.4375 -0.117188 5.316406 0 5.078125 0 L 2.125 0 C 1.882812 0 1.765625 -0.117188 1.765625 -0.359375 L 1.765625 -17.890625 C 1.765625 -18.128906 1.882812 -18.25 2.125 -18.25 L 5.078125 -18.25 C 5.316406 -18.25 5.4375 -18.128906 5.4375 -17.890625 Z M 5.4375 -0.359375 "/></g></g></g><g fill="#890019" fill-opacity="1"><g transform="translate(250.407665, 58.192828)"><g><path d="M 5.3125 -0.359375 C 5.3125 -0.117188 5.191406 0 4.953125 0 L 2.125 0 C 1.882812 0 1.765625 -0.117188 1.765625 -0.359375 L 1.765625 -17.890625 C 1.765625 -18.128906 1.882812 -18.25 2.125 -18.25 L 4.71875 -18.25 C 4.90625 -18.25 5.050781 -18.171875 5.15625 -18.015625 L 13.546875 -6.34375 L 13.546875 -17.890625 C 13.546875 -18.128906 13.660156 -18.25 13.890625 -18.25 L 16.734375 -18.25 C 16.960938 -18.25 17.078125 -18.128906 17.078125 -17.890625 L 17.078125 -0.359375 C 17.078125 -0.117188 16.960938 0 16.734375 0 L 14.125 0 C 13.9375 0 13.796875 -0.078125 13.703125 -0.234375 L 5.3125 -11.90625 Z M 5.3125 -0.359375 "/></g></g></g><g fill="#890019" fill-opacity="1"><g transform="translate(269.227655, 58.192828)"><g><path d="M 4.171875 -0.28125 C 4.085938 -0.09375 3.953125 0 3.765625 0 L 0.765625 0 C 0.628906 0 0.535156 -0.0351562 0.484375 -0.109375 C 0.429688 -0.191406 0.429688 -0.289062 0.484375 -0.40625 L 7.328125 -17.96875 C 7.410156 -18.15625 7.546875 -18.25 7.734375 -18.25 L 10.96875 -18.25 C 11.15625 -18.25 11.289062 -18.15625 11.375 -17.96875 L 18.25 -0.40625 C 18.257812 -0.375 18.265625 -0.320312 18.265625 -0.25 C 18.265625 -0.0820312 18.164062 0 17.96875 0 L 14.703125 0 C 14.515625 0 14.378906 -0.09375 14.296875 -0.28125 L 13.015625 -3.765625 L 5.4375 -3.765625 Z M 9.21875 -14.125 L 6.640625 -7.09375 L 11.828125 -7.09375 Z M 9.21875 -14.125 "/></g></g></g><g fill="#890019" fill-opacity="1"><g transform="translate(287.946599, 58.192828)"><g><path d="M 5.3125 -0.359375 C 5.3125 -0.117188 5.191406 0 4.953125 0 L 2.125 0 C 1.882812 0 1.765625 -0.117188 1.765625 -0.359375 L 1.765625 -17.890625 C 1.765625 -18.128906 1.882812 -18.25 2.125 -18.25 L 4.71875 -18.25 C 4.90625 -18.25 5.050781 -18.171875 5.15625 -18.015625 L 13.546875 -6.34375 L 13.546875 -17.890625 C 13.546875 -18.128906 13.660156 -18.25 13.890625 -18.25 L 16.734375 -18.25 C 16.960938 -18.25 17.078125 -18.128906 17.078125 -17.890625 L 17.078125 -0.359375 C 17.078125 -0.117188 16.960938 0 16.734375 0 L 14.125 0 C 13.9375 0 13.796875 -0.078125 13.703125 -0.234375 L 5.3125 -11.90625 Z M 5.3125 -0.359375 "/></g></g></g><g fill="#890019" fill-opacity="1"><g transform="translate(306.76659, 58.192828)"><g><path d="M 9.46875 0.328125 C 7.851562 0.328125 6.394531 -0.0703125 5.09375 -0.875 C 3.789062 -1.6875 2.769531 -2.8125 2.03125 -4.25 C 1.300781 -5.695312 0.9375 -7.320312 0.9375 -9.125 C 0.9375 -10.925781 1.300781 -12.539062 2.03125 -13.96875 C 2.769531 -15.40625 3.785156 -16.53125 5.078125 -17.34375 C 6.378906 -18.164062 7.84375 -18.578125 9.46875 -18.578125 C 11.238281 -18.578125 12.703125 -18.175781 13.859375 -17.375 C 15.015625 -16.570312 15.894531 -15.503906 16.5 -14.171875 C 16.519531 -14.140625 16.53125 -14.09375 16.53125 -14.03125 C 16.53125 -13.894531 16.453125 -13.785156 16.296875 -13.703125 L 13.828125 -12.609375 C 13.753906 -12.578125 13.691406 -12.5625 13.640625 -12.5625 C 13.523438 -12.5625 13.425781 -12.632812 13.34375 -12.78125 C 12.519531 -14.363281 11.226562 -15.15625 9.46875 -15.15625 C 8.59375 -15.15625 7.796875 -14.910156 7.078125 -14.421875 C 6.367188 -13.941406 5.804688 -13.242188 5.390625 -12.328125 C 4.984375 -11.421875 4.78125 -10.367188 4.78125 -9.171875 C 4.78125 -7.941406 4.988281 -6.863281 5.40625 -5.9375 C 5.832031 -5.007812 6.40625 -4.300781 7.125 -3.8125 C 7.851562 -3.320312 8.644531 -3.078125 9.5 -3.078125 C 11.375 -3.078125 12.710938 -3.953125 13.515625 -5.703125 C 13.617188 -5.910156 13.78125 -5.972656 14 -5.890625 L 16.53125 -4.953125 C 16.75 -4.867188 16.820312 -4.722656 16.75 -4.515625 C 16.164062 -3.003906 15.25 -1.816406 14 -0.953125 C 12.75 -0.0976562 11.238281 0.328125 9.46875 0.328125 Z M 9.46875 0.328125 "/></g></g></g><g fill="#890019" fill-opacity="1"><g transform="translate(323.868794, 58.192828)"><g><path d="M 14.359375 -0.359375 C 14.359375 -0.117188 14.238281 0 14 0 L 2.125 0 C 1.882812 0 1.765625 -0.117188 1.765625 -0.359375 L 1.765625 -17.890625 C 1.765625 -18.128906 1.882812 -18.25 2.125 -18.25 L 13.890625 -18.25 C 14.128906 -18.25 14.25 -18.128906 14.25 -17.890625 L 14.25 -15.234375 C 14.25 -15.003906 14.128906 -14.890625 13.890625 -14.890625 L 5.328125 -14.890625 L 5.328125 -10.921875 L 12.734375 -10.921875 C 12.972656 -10.921875 13.09375 -10.800781 13.09375 -10.5625 L 13.09375 -7.90625 C 13.09375 -7.675781 12.972656 -7.5625 12.734375 -7.5625 L 5.328125 -7.5625 L 5.328125 -3.359375 L 14 -3.359375 C 14.238281 -3.359375 14.359375 -3.238281 14.359375 -3 Z M 14.359375 -0.359375 "/></g></g></g><g fill="#890019" fill-opacity="1"><g transform="translate(339.404771, 58.192828)"><g><path d="M 5.4375 -0.359375 C 5.4375 -0.117188 5.316406 0 5.078125 0 L 2.125 0 C 1.882812 0 1.765625 -0.117188 1.765625 -0.359375 L 1.765625 -17.890625 C 1.765625 -18.128906 1.882812 -18.25 2.125 -18.25 L 5.078125 -18.25 C 5.316406 -18.25 5.4375 -18.128906 5.4375 -17.890625 Z M 5.4375 -0.359375 "/></g></g></g><g fill="#890019" fill-opacity="1"><g transform="translate(346.604353, 58.192828)"><g><path d="M 12.8125 0.328125 C 12.726562 0.328125 12.632812 0.269531 12.53125 0.15625 L 7.984375 -6.46875 L 5.375 -6.46875 L 5.375 -0.359375 C 5.375 -0.117188 5.257812 0 5.03125 0 L 2.125 0 C 1.882812 0 1.765625 -0.117188 1.765625 -0.359375 L 1.765625 -17.890625 C 1.765625 -18.128906 1.882812 -18.25 2.125 -18.25 L 8.71875 -18.25 C 10.050781 -18.25 11.203125 -17.988281 12.171875 -17.46875 C 13.148438 -16.957031 13.898438 -16.257812 14.421875 -15.375 C 14.953125 -14.488281 15.21875 -13.5 15.21875 -12.40625 C 15.21875 -11.195312 14.878906 -10.164062 14.203125 -9.3125 C 13.523438 -8.457031 12.628906 -7.851562 11.515625 -7.5 L 15.5625 -1.84375 C 15.613281 -1.78125 15.640625 -1.710938 15.640625 -1.640625 C 15.640625 -1.523438 15.585938 -1.441406 15.484375 -1.390625 L 13.09375 0.234375 C 12.96875 0.296875 12.875 0.328125 12.8125 0.328125 Z M 8.671875 -9.65625 C 9.578125 -9.65625 10.300781 -9.898438 10.84375 -10.390625 C 11.382812 -10.878906 11.65625 -11.507812 11.65625 -12.28125 C 11.65625 -13.070312 11.390625 -13.707031 10.859375 -14.1875 C 10.328125 -14.664062 9.597656 -14.90625 8.671875 -14.90625 L 5.375 -14.90625 L 5.375 -9.65625 Z M 8.671875 -9.65625 "/></g></g></g><g fill="#890019" fill-opacity="1"><g transform="translate(362.923433, 58.192828)"><g><path d="M 9.546875 0.328125 C 7.878906 0.328125 6.390625 -0.078125 5.078125 -0.890625 C 3.765625 -1.710938 2.742188 -2.84375 2.015625 -4.28125 C 1.296875 -5.71875 0.9375 -7.332031 0.9375 -9.125 C 0.9375 -10.90625 1.300781 -12.507812 2.03125 -13.9375 C 2.769531 -15.375 3.796875 -16.503906 5.109375 -17.328125 C 6.421875 -18.160156 7.898438 -18.578125 9.546875 -18.578125 C 11.210938 -18.578125 12.703125 -18.164062 14.015625 -17.34375 C 15.335938 -16.53125 16.363281 -15.398438 17.09375 -13.953125 C 17.820312 -12.515625 18.1875 -10.90625 18.1875 -9.125 C 18.1875 -7.332031 17.820312 -5.71875 17.09375 -4.28125 C 16.363281 -2.851562 15.335938 -1.726562 14.015625 -0.90625 C 12.703125 -0.0820312 11.210938 0.328125 9.546875 0.328125 Z M 9.546875 -3.078125 C 10.492188 -3.078125 11.332031 -3.328125 12.0625 -3.828125 C 12.800781 -4.328125 13.367188 -5.03125 13.765625 -5.9375 C 14.160156 -6.84375 14.359375 -7.890625 14.359375 -9.078125 C 14.359375 -10.304688 14.148438 -11.378906 13.734375 -12.296875 C 13.316406 -13.210938 12.742188 -13.914062 12.015625 -14.40625 C 11.285156 -14.90625 10.460938 -15.15625 9.546875 -15.15625 C 8.609375 -15.15625 7.773438 -14.90625 7.046875 -14.40625 C 6.328125 -13.914062 5.769531 -13.210938 5.375 -12.296875 C 4.976562 -11.390625 4.78125 -10.347656 4.78125 -9.171875 C 4.78125 -7.941406 4.984375 -6.867188 5.390625 -5.953125 C 5.804688 -5.035156 6.375 -4.328125 7.09375 -3.828125 C 7.820312 -3.328125 8.640625 -3.078125 9.546875 -3.078125 Z M 9.546875 -3.078125 "/></g></g></g></svg>